{"asset":{"version":"2.0","generator":"babylon.js glTF exporter for 3dsmax 2019 v20200721.1"},"scene":0,"scenes":[{"nodes":[0,1]}],"nodes":[{"mesh":0,"translation":[0.0,3.45877624,0.0],"name":"100车间06厂-1F-1F"},{"name":"Default light"}],"meshes":[{"primitives":[{"attributes":{"POSITION":1,"NORMAL":2,"TEXCOORD_0":3},"indices":0,"material":0},{"attributes":{"POSITION":5,"NORMAL":6,"TEXCOORD_0":7},"indices":4,"material":1},{"attributes":{"POSITION":9,"NORMAL":10,"TEXCOORD_0":11},"indices":8,"material":2},{"attributes":{"POSITION":13,"NORMAL":14,"TEXCOORD_0":15},"indices":12,"material":3},{"attributes":{"POSITION":17,"NORMAL":18,"TEXCOORD_0":19},"indices":16,"material":4}],"name":"100车间06厂-1F-1F"}],"accessors":[{"bufferView":0,"componentType":5123,"count":11400,"type":"SCALAR","name":"accessorIndices"},{"bufferView":1,"componentType":5126,"count":11400,"max":[24.91598,3.25872922,63.5709],"min":[-7.712305,-3.15872526,-2.62853622],"type":"VEC3","name":"accessorPositions"},{"bufferView":1,"byteOffset":136800,"componentType":5126,"count":11400,"type":"VEC3","name":"accessorNormals"},{"bufferView":2,"componentType":5126,"count":11400,"type":"VEC2","name":"accessorUVs"},{"bufferView":0,"byteOffset":22800,"componentType":5123,"count":6840,"type":"SCALAR","name":"accessorIndices"},{"bufferView":1,"byteOffset":273600,"componentType":5126,"count":6840,"max":[26.4444,-2.35871887,88.07738],"min":[-26.4581833,-3.15872,-88.08812],"type":"VEC3","name":"accessorPositions"},{"bufferView":1,"byteOffset":355680,"componentType":5126,"count":6840,"type":"VEC3","name":"accessorNormals"},{"bufferView":2,"byteOffset":91200,"componentType":5126,"count":6840,"type":"VEC2","name":"accessorUVs"},{"bufferView":0,"byteOffset":36480,"componentType":5123,"count":4440,"type":"SCALAR","name":"accessorIndices"},{"bufferView":1,"byteOffset":437760,"componentType":5126,"count":4440,"max":[24.3807163,-2.35871172,87.82239],"min":[-25.76836,-3.15872645,-85.54465],"type":"VEC3","name":"accessorPositions"},{"bufferView":1,"byteOffset":491040,"componentType":5126,"count":4440,"type":"VEC3","name":"accessorNormals"},{"bufferView":2,"byteOffset":145920,"componentType":5126,"count":4440,"type":"VEC2","name":"accessorUVs"},{"bufferView":0,"byteOffset":45360,"componentType":5123,"count":3756,"type":"SCALAR","name":"accessorIndices"},{"bufferView":1,"byteOffset":544320,"componentType":5126,"count":3756,"max":[26.4581947,-2.05872822,88.08816],"min":[-22.2422714,-3.25872922,-87.86745],"type":"VEC3","name":"accessorPositions"},{"bufferView":1,"byteOffset":589392,"componentType":5126,"count":3756,"type":"VEC3","name":"accessorNormals"},{"bufferView":2,"byteOffset":181440,"componentType":5126,"count":3756,"type":"VEC2","name":"accessorUVs"},{"bufferView":0,"byteOffset":52872,"componentType":5123,"count":144,"type":"SCALAR","name":"accessorIndices"},{"bufferView":1,"byteOffset":634464,"componentType":5126,"count":144,"max":[26.4581947,-3.1587286,88.0881348],"min":[-26.45818,-3.25872922,-88.0881042],"type":"VEC3","name":"accessorPositions"},{"bufferView":1,"byteOffset":636192,"componentType":5126,"count":144,"type":"VEC3","name":"accessorNormals"},{"bufferView":2,"byteOffset":211488,"componentType":5126,"count":144,"type":"VEC2","name":"accessorUVs"}],"bufferViews":[{"buffer":0,"byteLength":53160,"name":"bufferViewScalar"},{"buffer":0,"byteOffset":53160,"byteLength":637920,"byteStride":12,"name":"bufferViewFloatVec3"},{"buffer":0,"byteOffset":691080,"byteLength":212640,"byteStride":8,"name":"bufferViewFloatVec2"}],"buffers":[{"uri":"tileset.bin","byteLength":903720}],"materials":[{"pbrMetallicRoughness":{"baseColorTexture":{"index":0},"metallicFactor":0.0,"roughnessFactor":0.450053632},"doubleSided":true,"name":"anc0088"},{"pbrMetallicRoughness":{"baseColorTexture":{"index":1},"metallicFactor":0.0,"roughnessFactor":0.450053632},"name":"anc0089"},{"pbrMetallicRoughness":{"baseColorTexture":{"index":2},"metallicFactor":0.0,"roughnessFactor":0.450053632},"doubleSided":true,"name":"anc0090"},{"pbrMetallicRoughness":{"baseColorTexture":{"index":3},"metallicFactor":0.0,"roughnessFactor":0.450053632},"doubleSided":true,"name":"anc0091"},{"pbrMetallicRoughness":{"baseColorTexture":{"index":4},"metallicFactor":0.0,"roughnessFactor":0.450053632},"doubleSided":true,"name":"anc0092"}],"textures":[{"sampler":0,"source":0,"name":"ycd01.jpg"},{"sampler":0,"source":1,"name":"rsa0014.jpg"},{"sampler":0,"source":2,"name":"ycd16.jpg"},{"sampler":0,"source":3,"name":"3d66Model-746387-files-1.jpg"},{"sampler":0,"source":4,"name":"ycd04.jpg"}],"images":[{"uri":"./ycd01.jpg"},{"uri":"./rsa0014.jpg"},{"uri":"./ycd16.jpg"},{"uri":"./3d66Model-746387-files-1.jpg"},{"uri":"./ycd04.jpg"}],"samplers":[{"magFilter":9729,"minFilter":9987}]}