{"asset":{"version":"2.0","generator":"babylon.js glTF exporter for 3dsmax 2019 v20200721.1"},"scene":0,"scenes":[{"nodes":[0,1,2,3]}],"nodes":[{"mesh":0,"translation":[0.0,0.10008049,1.52587891E-05],"name":"300车间-3F-1F"},{"mesh":1,"translation":[-2.41346169,3.78236556,0.0],"name":"300车间-3F-2F"},{"mesh":2,"translation":[-35.4789047,9.822693,5.35090637],"name":"300车间-3F-3F"},{"name":"Default light"}],"meshes":[{"primitives":[{"attributes":{"POSITION":1,"NORMAL":2,"TEXCOORD_0":3},"indices":0,"material":0},{"attributes":{"POSITION":5,"NORMAL":6,"TEXCOORD_0":7},"indices":4,"material":1},{"attributes":{"POSITION":9,"NORMAL":10,"TEXCOORD_0":11},"indices":8,"material":2},{"attributes":{"POSITION":13,"NORMAL":14,"TEXCOORD_0":15},"indices":12,"material":3},{"attributes":{"POSITION":17,"NORMAL":18,"TEXCOORD_0":19},"indices":16,"material":4},{"attributes":{"POSITION":21,"NORMAL":22,"TEXCOORD_0":23},"indices":20,"material":5}],"name":"300车间-3F-1F"},{"primitives":[{"attributes":{"POSITION":25,"NORMAL":26,"TEXCOORD_0":27},"indices":24,"material":1},{"attributes":{"POSITION":29,"NORMAL":30,"TEXCOORD_0":31},"indices":28,"material":4},{"attributes":{"POSITION":33,"NORMAL":34,"TEXCOORD_0":35},"indices":32,"material":0},{"attributes":{"POSITION":37,"NORMAL":38,"TEXCOORD_0":39},"indices":36,"material":6},{"attributes":{"POSITION":41,"NORMAL":42,"TEXCOORD_0":43},"indices":40,"material":7},{"attributes":{"POSITION":45,"NORMAL":46,"TEXCOORD_0":47},"indices":44,"material":2},{"attributes":{"POSITION":49,"NORMAL":50,"TEXCOORD_0":51},"indices":48,"material":5}],"name":"300车间-3F-2F"},{"primitives":[{"attributes":{"POSITION":53,"NORMAL":54,"TEXCOORD_0":55},"indices":52,"material":4},{"attributes":{"POSITION":57,"NORMAL":58,"TEXCOORD_0":59},"indices":56,"material":0},{"attributes":{"POSITION":61,"NORMAL":62,"TEXCOORD_0":63},"indices":60,"material":6},{"attributes":{"POSITION":65,"NORMAL":66,"TEXCOORD_0":67},"indices":64,"material":2},{"attributes":{"POSITION":69,"NORMAL":70,"TEXCOORD_0":71},"indices":68,"material":5},{"attributes":{"POSITION":73,"NORMAL":74,"TEXCOORD_0":75},"indices":72,"material":1}],"name":"300车间-3F-3F"}],"accessors":[{"bufferView":0,"componentType":5123,"count":4920,"type":"SCALAR","name":"accessorIndices"},{"bufferView":1,"componentType":5126,"count":4920,"max":[38.2754364,0.8500003,28.1524467],"min":[-43.1024,0.0499999523,-28.152441],"type":"VEC3","name":"accessorPositions"},{"bufferView":1,"byteOffset":59040,"componentType":5126,"count":4920,"type":"VEC3","name":"accessorNormals"},{"bufferView":2,"componentType":5126,"count":4920,"type":"VEC2","name":"accessorUVs"},{"bufferView":0,"byteOffset":9840,"componentType":5123,"count":24192,"type":"SCALAR","name":"accessorIndices"},{"bufferView":1,"byteOffset":118080,"componentType":5126,"count":24192,"max":[43.1024,0.850000143,28.1424522],"min":[-43.0924,0.05000007,-28.14244],"type":"VEC3","name":"accessorPositions"},{"bufferView":1,"byteOffset":408384,"componentType":5126,"count":24192,"type":"VEC3","name":"accessorNormals"},{"bufferView":2,"byteOffset":39360,"componentType":5126,"count":24192,"type":"VEC2","name":"accessorUVs"},{"bufferView":0,"byteOffset":58224,"componentType":5123,"count":306,"type":"SCALAR","name":"accessorIndices"},{"bufferView":1,"byteOffset":698688,"componentType":5126,"count":306,"max":[43.1024,0.05000007,28.14246],"min":[-43.1023941,0.0,-28.1524334],"type":"VEC3","name":"accessorPositions"},{"bufferView":1,"byteOffset":702360,"componentType":5126,"count":306,"type":"VEC3","name":"accessorNormals"},{"bufferView":2,"byteOffset":232896,"componentType":5126,"count":306,"type":"VEC2","name":"accessorUVs"},{"bufferView":0,"byteOffset":58836,"componentType":5123,"count":36,"type":"SCALAR","name":"accessorIndices"},{"bufferView":1,"byteOffset":706032,"componentType":5126,"count":36,"max":[-18.2375927,0.850000143,-16.66695],"min":[-24.2252712,0.05000016,-21.9229126],"type":"VEC3","name":"accessorPositions"},{"bufferView":1,"byteOffset":706464,"componentType":5126,"count":36,"type":"VEC3","name":"accessorNormals"},{"bufferView":2,"byteOffset":235344,"componentType":5126,"count":36,"type":"VEC2","name":"accessorUVs"},{"bufferView":0,"byteOffset":58908,"componentType":5123,"count":3792,"type":"SCALAR","name":"accessorIndices"},{"bufferView":1,"byteOffset":706896,"componentType":5126,"count":3792,"max":[19.7336216,2.68029213,17.6059189],"min":[-38.99437,0.0500028133,-17.2257671],"type":"VEC3","name":"accessorPositions"},{"bufferView":1,"byteOffset":752400,"componentType":5126,"count":3792,"type":"VEC3","name":"accessorNormals"},{"bufferView":2,"byteOffset":235632,"componentType":5126,"count":3792,"type":"VEC2","name":"accessorUVs"},{"bufferView":0,"byteOffset":66492,"componentType":5123,"count":2088,"type":"SCALAR","name":"accessorIndices"},{"bufferView":1,"byteOffset":797904,"componentType":5126,"count":2088,"max":[41.37627,0.85,27.9990768],"min":[-42.78994,0.0499999523,-27.9355011],"type":"VEC3","name":"accessorPositions"},{"bufferView":1,"byteOffset":822960,"componentType":5126,"count":2088,"type":"VEC3","name":"accessorNormals"},{"bufferView":2,"byteOffset":265968,"componentType":5126,"count":2088,"type":"VEC2","name":"accessorUVs"},{"bufferView":0,"byteOffset":70668,"componentType":5123,"count":17472,"type":"SCALAR","name":"accessorIndices"},{"bufferView":1,"byteOffset":848016,"componentType":5126,"count":17472,"max":[40.6789169,2.85000277,28.142458],"min":[-40.67891,0.05000007,-28.142437],"type":"VEC3","name":"accessorPositions"},{"bufferView":1,"byteOffset":1057680,"componentType":5126,"count":17472,"type":"VEC3","name":"accessorNormals"},{"bufferView":2,"byteOffset":282672,"componentType":5126,"count":17472,"type":"VEC2","name":"accessorUVs"},{"bufferView":0,"byteOffset":105612,"componentType":5123,"count":4704,"type":"SCALAR","name":"accessorIndices"},{"bufferView":1,"byteOffset":1267344,"componentType":5126,"count":4704,"max":[22.1470947,4.680292,17.6059513],"min":[-36.58088,0.0499999523,-17.22575],"type":"VEC3","name":"accessorPositions"},{"bufferView":1,"byteOffset":1323792,"componentType":5126,"count":4704,"type":"VEC3","name":"accessorNormals"},{"bufferView":2,"byteOffset":422448,"componentType":5126,"count":4704,"type":"VEC2","name":"accessorUVs"},{"bufferView":0,"byteOffset":115020,"componentType":5123,"count":5280,"type":"SCALAR","name":"accessorIndices"},{"bufferView":1,"byteOffset":1380240,"componentType":5126,"count":5280,"max":[40.68892,2.85000038,28.15245],"min":[-40.68891,0.0499994755,-28.1524334],"type":"VEC3","name":"accessorPositions"},{"bufferView":1,"byteOffset":1443600,"componentType":5126,"count":5280,"type":"VEC3","name":"accessorNormals"},{"bufferView":2,"byteOffset":460080,"componentType":5126,"count":5280,"type":"VEC2","name":"accessorUVs"},{"bufferView":0,"byteOffset":125580,"componentType":5123,"count":36,"type":"SCALAR","name":"accessorIndices"},{"bufferView":1,"byteOffset":1506960,"componentType":5126,"count":36,"max":[40.12346,3.32969,-21.5260143],"min":[38.5127258,2.049996,-23.9536724],"type":"VEC3","name":"accessorPositions"},{"bufferView":1,"byteOffset":1507392,"componentType":5126,"count":36,"type":"VEC3","name":"accessorNormals"},{"bufferView":2,"byteOffset":502320,"componentType":5126,"count":36,"type":"VEC2","name":"accessorUVs"},{"bufferView":0,"byteOffset":125652,"componentType":5123,"count":144,"type":"SCALAR","name":"accessorIndices"},{"bufferView":1,"byteOffset":1507824,"componentType":5126,"count":144,"max":[37.77542,2.14999628,22.1136532],"min":[-4.18212938,2.04999614,-21.4317226],"type":"VEC3","name":"accessorPositions"},{"bufferView":1,"byteOffset":1509552,"componentType":5126,"count":144,"type":"VEC3","name":"accessorNormals"},{"bufferView":2,"byteOffset":502608,"componentType":5126,"count":144,"type":"VEC2","name":"accessorUVs"},{"bufferView":0,"byteOffset":125940,"componentType":5123,"count":354,"type":"SCALAR","name":"accessorIndices"},{"bufferView":1,"byteOffset":1511280,"componentType":5126,"count":354,"max":[40.68892,2.05000019,28.1524429],"min":[-40.68892,0.0,-28.152441],"type":"VEC3","name":"accessorPositions"},{"bufferView":1,"byteOffset":1515528,"componentType":5126,"count":354,"type":"VEC3","name":"accessorNormals"},{"bufferView":2,"byteOffset":503760,"componentType":5126,"count":354,"type":"VEC2","name":"accessorUVs"},{"bufferView":0,"byteOffset":126648,"componentType":5123,"count":1254,"type":"SCALAR","name":"accessorIndices"},{"bufferView":1,"byteOffset":1519776,"componentType":5126,"count":1254,"max":[39.8925552,2.849996,26.1752129],"min":[-38.0018768,0.0499994755,-26.7261639],"type":"VEC3","name":"accessorPositions"},{"bufferView":1,"byteOffset":1534824,"componentType":5126,"count":1254,"type":"VEC3","name":"accessorNormals"},{"bufferView":2,"byteOffset":506592,"componentType":5126,"count":1254,"type":"VEC2","name":"accessorUVs"},{"bufferView":0,"byteOffset":129156,"componentType":5123,"count":1896,"type":"SCALAR","name":"accessorIndices"},{"bufferView":1,"byteOffset":1549872,"componentType":5126,"count":1896,"max":[6.73942566,2.680292,12.2550507],"min":[-3.51544857,0.0500025749,-20.9288349],"type":"VEC3","name":"accessorPositions"},{"bufferView":1,"byteOffset":1572624,"componentType":5126,"count":1896,"type":"VEC3","name":"accessorNormals"},{"bufferView":2,"byteOffset":516624,"componentType":5126,"count":1896,"type":"VEC2","name":"accessorUVs"},{"bufferView":0,"byteOffset":132948,"componentType":5123,"count":936,"type":"SCALAR","name":"accessorIndices"},{"bufferView":1,"byteOffset":1595376,"componentType":5126,"count":936,"max":[7.623477,0.8499994,21.4957085],"min":[-7.62350035,0.0499993563,-21.4957161],"type":"VEC3","name":"accessorPositions"},{"bufferView":1,"byteOffset":1606608,"componentType":5126,"count":936,"type":"VEC3","name":"accessorNormals"},{"bufferView":2,"byteOffset":531792,"componentType":5126,"count":936,"type":"VEC2","name":"accessorUVs"},{"bufferView":0,"byteOffset":134820,"componentType":5123,"count":36,"type":"SCALAR","name":"accessorIndices"},{"bufferView":1,"byteOffset":1617840,"componentType":5126,"count":36,"max":[-4.15304565,1.36800838,-11.0479507],"min":[-6.26114225,0.0499997139,-12.0481663],"type":"VEC3","name":"accessorPositions"},{"bufferView":1,"byteOffset":1618272,"componentType":5126,"count":36,"type":"VEC3","name":"accessorNormals"},{"bufferView":2,"byteOffset":539280,"componentType":5126,"count":36,"type":"VEC2","name":"accessorUVs"},{"bufferView":0,"byteOffset":134892,"componentType":5123,"count":66,"type":"SCALAR","name":"accessorIndices"},{"bufferView":1,"byteOffset":1618704,"componentType":5126,"count":66,"max":[7.62350559,0.0499998331,21.4957161],"min":[-7.623485,-2.38418579E-07,-21.4957123],"type":"VEC3","name":"accessorPositions"},{"bufferView":1,"byteOffset":1619496,"componentType":5126,"count":66,"type":"VEC3","name":"accessorNormals"},{"bufferView":2,"byteOffset":539568,"componentType":5126,"count":66,"type":"VEC2","name":"accessorUVs"},{"bufferView":0,"byteOffset":135024,"componentType":5123,"count":360,"type":"SCALAR","name":"accessorIndices"},{"bufferView":1,"byteOffset":1620288,"componentType":5126,"count":360,"max":[1.27571964,0.8499998,20.82436],"min":[-4.936699,0.0499997139,-15.72034],"type":"VEC3","name":"accessorPositions"},{"bufferView":1,"byteOffset":1624608,"componentType":5126,"count":360,"type":"VEC3","name":"accessorNormals"},{"bufferView":2,"byteOffset":540096,"componentType":5126,"count":360,"type":"VEC2","name":"accessorUVs"},{"bufferView":0,"byteOffset":135744,"componentType":5123,"count":1548,"type":"SCALAR","name":"accessorIndices"},{"bufferView":1,"byteOffset":1628928,"componentType":5126,"count":1548,"max":[7.61348724,0.849999368,21.4857178],"min":[-7.613488,0.0499993563,-21.4857121],"type":"VEC3","name":"accessorPositions"},{"bufferView":1,"byteOffset":1647504,"componentType":5126,"count":1548,"type":"VEC3","name":"accessorNormals"},{"bufferView":2,"byteOffset":542976,"componentType":5126,"count":1548,"type":"VEC2","name":"accessorUVs"}],"bufferViews":[{"buffer":0,"byteLength":138840,"name":"bufferViewScalar"},{"buffer":0,"byteOffset":138840,"byteLength":1666080,"byteStride":12,"name":"bufferViewFloatVec3"},{"buffer":0,"byteOffset":1804920,"byteLength":555360,"byteStride":8,"name":"bufferViewFloatVec2"}],"buffers":[{"uri":"tileset.bin","byteLength":2360280}],"materials":[{"pbrMetallicRoughness":{"baseColorTexture":{"index":0},"metallicFactor":0.0,"roughnessFactor":0.450053632},"doubleSided":true,"name":"anc0050"},{"pbrMetallicRoughness":{"baseColorTexture":{"index":1},"metallicFactor":0.0,"roughnessFactor":0.450053632},"name":"anc0054"},{"pbrMetallicRoughness":{"baseColorTexture":{"index":2},"metallicFactor":0.0,"roughnessFactor":0.450053632},"doubleSided":true,"name":"anc0042"},{"pbrMetallicRoughness":{"baseColorTexture":{"index":3},"metallicFactor":0.0,"roughnessFactor":0.450053632},"name":"anc0118"},{"pbrMetallicRoughness":{"baseColorTexture":{"index":4},"metallicFactor":0.0,"roughnessFactor":0.450053632},"name":"anc0049"},{"pbrMetallicRoughness":{"baseColorTexture":{"index":5},"metallicFactor":0.0,"roughnessFactor":0.450053632},"doubleSided":true,"name":"anc0051"},{"pbrMetallicRoughness":{"baseColorTexture":{"index":6},"metallicFactor":0.0,"roughnessFactor":0.450053632},"name":"anc0053"},{"pbrMetallicRoughness":{"baseColorTexture":{"index":7},"metallicFactor":0.0,"roughnessFactor":0.450053632},"name":"anc0052"}],"textures":[{"sampler":0,"source":0,"name":"axcj0005.jpg"},{"sampler":0,"source":1,"name":"axcj0006.jpg"},{"sampler":0,"source":2,"name":"ycd04.jpg"},{"sampler":0,"source":3,"name":"axcj0010.jpg"},{"sampler":0,"source":4,"name":"axcj0002.jpg"},{"sampler":0,"source":5,"name":"axcj0003.jpg"},{"sampler":0,"source":6,"name":"axcj0004.jpg"},{"sampler":0,"source":7,"name":"axcj0007.jpg"}],"images":[{"uri":"./axcj0005.jpg"},{"uri":"./axcj0006.jpg"},{"uri":"./ycd04.jpg"},{"uri":"./axcj0010.jpg"},{"uri":"./axcj0002.jpg"},{"uri":"./axcj0003.jpg"},{"uri":"./axcj0004.jpg"},{"uri":"./axcj0007.jpg"}],"samplers":[{"magFilter":9729,"minFilter":9987}]}