{"asset":{"version":"2.0","generator":"babylon.js glTF exporter for 3dsmax 2019 v20200721.1"},"scene":0,"scenes":[{"nodes":[0,1,2]}],"nodes":[{"mesh":0,"translation":[-1.14440918E-05,2.03151226,0.0],"name":"401工段-2F-1F"},{"mesh":1,"translation":[-7.62939453E-06,7.167324,0.0],"name":"401工段-2F-2F"},{"name":"Default light"}],"meshes":[{"primitives":[{"attributes":{"POSITION":1,"NORMAL":2,"TEXCOORD_0":3},"indices":0,"material":0},{"attributes":{"POSITION":5,"NORMAL":6,"TEXCOORD_0":7},"indices":4,"material":1},{"attributes":{"POSITION":9,"NORMAL":10,"TEXCOORD_0":11},"indices":8,"material":2},{"attributes":{"POSITION":13,"NORMAL":14,"TEXCOORD_0":15},"indices":12,"material":3},{"attributes":{"POSITION":17,"NORMAL":18,"TEXCOORD_0":19},"indices":16,"material":4},{"attributes":{"POSITION":21,"NORMAL":22,"TEXCOORD_0":23},"indices":20,"material":5},{"attributes":{"POSITION":25,"NORMAL":26,"TEXCOORD_0":27},"indices":24,"material":6},{"attributes":{"POSITION":29,"NORMAL":30,"TEXCOORD_0":31},"indices":28,"material":7},{"attributes":{"POSITION":33,"NORMAL":34,"TEXCOORD_0":35},"indices":32,"material":8},{"attributes":{"POSITION":37,"NORMAL":38,"TEXCOORD_0":39},"indices":36,"material":9},{"attributes":{"POSITION":41,"NORMAL":42,"TEXCOORD_0":43},"indices":40,"material":10},{"attributes":{"POSITION":45,"NORMAL":46,"TEXCOORD_0":47},"indices":44,"material":11},{"attributes":{"POSITION":49,"NORMAL":50,"TEXCOORD_0":51},"indices":48,"material":12},{"attributes":{"POSITION":53,"NORMAL":54,"TEXCOORD_0":55},"indices":52,"material":13}],"name":"401工段-2F-1F"},{"primitives":[{"attributes":{"POSITION":57,"NORMAL":58,"TEXCOORD_0":59},"indices":56,"material":14},{"attributes":{"POSITION":61,"NORMAL":62,"TEXCOORD_0":63},"indices":60,"material":4},{"attributes":{"POSITION":65,"NORMAL":66,"TEXCOORD_0":67},"indices":64,"material":12},{"attributes":{"POSITION":69,"NORMAL":70,"TEXCOORD_0":71},"indices":68,"material":11},{"attributes":{"POSITION":73,"NORMAL":74,"TEXCOORD_0":75},"indices":72,"material":3},{"attributes":{"POSITION":77,"NORMAL":78,"TEXCOORD_0":79},"indices":76,"material":9},{"attributes":{"POSITION":81,"NORMAL":82,"TEXCOORD_0":83},"indices":80,"material":13},{"attributes":{"POSITION":85,"NORMAL":86,"TEXCOORD_0":87},"indices":84,"material":0}],"name":"401工段-2F-2F"}],"accessors":[{"bufferView":0,"componentType":5123,"count":14316,"type":"SCALAR","name":"accessorIndices"},{"bufferView":1,"componentType":5126,"count":14316,"max":[39.87182,1.90018487,14.9476357],"min":[-39.7459564,-1.85543978,-14.683075],"type":"VEC3","name":"accessorPositions"},{"bufferView":1,"byteOffset":171792,"componentType":5126,"count":14316,"type":"VEC3","name":"accessorNormals"},{"bufferView":2,"componentType":5126,"count":14316,"type":"VEC2","name":"accessorUVs"},{"bufferView":0,"byteOffset":28632,"componentType":5123,"count":6864,"type":"SCALAR","name":"accessorIndices"},{"bufferView":1,"byteOffset":343584,"componentType":5126,"count":6864,"max":[39.5630951,-1.39206326,13.3405924],"min":[-37.56958,-1.83083534,-12.4726839],"type":"VEC3","name":"accessorPositions"},{"bufferView":1,"byteOffset":425952,"componentType":5126,"count":6864,"type":"VEC3","name":"accessorNormals"},{"bufferView":2,"byteOffset":114528,"componentType":5126,"count":6864,"type":"VEC2","name":"accessorUVs"},{"bufferView":0,"byteOffset":42360,"componentType":5123,"count":12672,"type":"SCALAR","name":"accessorIndices"},{"bufferView":1,"byteOffset":508320,"componentType":5126,"count":12672,"max":[39.5384064,-1.53064847,13.2894754],"min":[-37.4923019,-1.80244839,-12.4482622],"type":"VEC3","name":"accessorPositions"},{"bufferView":1,"byteOffset":660384,"componentType":5126,"count":12672,"type":"VEC3","name":"accessorNormals"},{"bufferView":2,"byteOffset":169440,"componentType":5126,"count":12672,"type":"VEC2","name":"accessorUVs"},{"bufferView":0,"byteOffset":67704,"componentType":5123,"count":480,"type":"SCALAR","name":"accessorIndices"},{"bufferView":1,"byteOffset":812448,"componentType":5126,"count":480,"max":[40.193512,-1.76148462,15.3897905],"min":[-40.1934929,-1.8308357,-15.0147228],"type":"VEC3","name":"accessorPositions"},{"bufferView":1,"byteOffset":818208,"componentType":5126,"count":480,"type":"VEC3","name":"accessorNormals"},{"bufferView":2,"byteOffset":270816,"componentType":5126,"count":480,"type":"VEC2","name":"accessorUVs"},{"bufferView":0,"byteOffset":68664,"componentType":5123,"count":1872,"type":"SCALAR","name":"accessorIndices"},{"bufferView":1,"byteOffset":823968,"componentType":5126,"count":1872,"max":[40.43757,-0.721235335,15.6323738],"min":[-40.4375725,-1.83083522,-15.6323681],"type":"VEC3","name":"accessorPositions"},{"bufferView":1,"byteOffset":846432,"componentType":5126,"count":1872,"type":"VEC3","name":"accessorNormals"},{"bufferView":2,"byteOffset":274656,"componentType":5126,"count":1872,"type":"VEC2","name":"accessorUVs"},{"bufferView":0,"byteOffset":72408,"componentType":5123,"count":192,"type":"SCALAR","name":"accessorIndices"},{"bufferView":1,"byteOffset":868896,"componentType":5126,"count":192,"max":[21.0498123,-1.39579344,1.91586769],"min":[-37.6777267,-1.78905427,-2.01746845],"type":"VEC3","name":"accessorPositions"},{"bufferView":1,"byteOffset":871200,"componentType":5126,"count":192,"type":"VEC3","name":"accessorNormals"},{"bufferView":2,"byteOffset":289632,"componentType":5126,"count":192,"type":"VEC2","name":"accessorUVs"},{"bufferView":0,"byteOffset":72792,"componentType":5123,"count":432,"type":"SCALAR","name":"accessorIndices"},{"bufferView":1,"byteOffset":873504,"componentType":5126,"count":432,"max":[21.0750237,-1.789054,1.94092751],"min":[-37.7029457,-1.83083522,-2.04253483],"type":"VEC3","name":"accessorPositions"},{"bufferView":1,"byteOffset":878688,"componentType":5126,"count":432,"type":"VEC3","name":"accessorNormals"},{"bufferView":2,"byteOffset":291168,"componentType":5126,"count":432,"type":"VEC2","name":"accessorUVs"},{"bufferView":0,"byteOffset":73656,"componentType":5123,"count":624,"type":"SCALAR","name":"accessorIndices"},{"bufferView":1,"byteOffset":883872,"componentType":5126,"count":624,"max":[20.7361183,-0.6722132,1.60367739],"min":[-37.3641663,-0.6722139,-1.70628762],"type":"VEC3","name":"accessorPositions"},{"bufferView":1,"byteOffset":891360,"componentType":5126,"count":624,"type":"VEC3","name":"accessorNormals"},{"bufferView":2,"byteOffset":294624,"componentType":5126,"count":624,"type":"VEC2","name":"accessorUVs"},{"bufferView":0,"byteOffset":74904,"componentType":5123,"count":3840,"type":"SCALAR","name":"accessorIndices"},{"bufferView":1,"byteOffset":898848,"componentType":5126,"count":3840,"max":[21.0498123,-0.6722132,1.91586757],"min":[-37.6777267,-1.39579391,-2.01746726],"type":"VEC3","name":"accessorPositions"},{"bufferView":1,"byteOffset":944928,"componentType":5126,"count":3840,"type":"VEC3","name":"accessorNormals"},{"bufferView":2,"byteOffset":299616,"componentType":5126,"count":3840,"type":"VEC2","name":"accessorUVs"},{"bufferView":0,"byteOffset":82584,"componentType":5123,"count":7056,"type":"SCALAR","name":"accessorIndices"},{"bufferView":1,"byteOffset":991008,"componentType":5126,"count":7056,"max":[32.6138153,0.4630286,2.162089],"min":[-39.0174446,-1.83083522,-14.0113049],"type":"VEC3","name":"accessorPositions"},{"bufferView":1,"byteOffset":1075680,"componentType":5126,"count":7056,"type":"VEC3","name":"accessorNormals"},{"bufferView":2,"byteOffset":330336,"componentType":5126,"count":7056,"type":"VEC2","name":"accessorUVs"},{"bufferView":0,"byteOffset":96696,"componentType":5123,"count":36,"type":"SCALAR","name":"accessorIndices"},{"bufferView":1,"byteOffset":1160352,"componentType":5126,"count":36,"max":[-22.4078274,-0.5908914,7.841766],"min":[-24.2227859,-1.83083487,6.32035971],"type":"VEC3","name":"accessorPositions"},{"bufferView":1,"byteOffset":1160784,"componentType":5126,"count":36,"type":"VEC3","name":"accessorNormals"},{"bufferView":2,"byteOffset":386784,"componentType":5126,"count":36,"type":"VEC2","name":"accessorUVs"},{"bufferView":0,"byteOffset":96768,"componentType":5123,"count":30,"type":"SCALAR","name":"accessorIndices"},{"bufferView":1,"byteOffset":1161216,"componentType":5126,"count":30,"max":[40.43756,-1.8308351,15.6323681],"min":[-40.4375648,-1.900185,-15.6323662],"type":"VEC3","name":"accessorPositions"},{"bufferView":1,"byteOffset":1161576,"componentType":5126,"count":30,"type":"VEC3","name":"accessorNormals"},{"bufferView":2,"byteOffset":387072,"componentType":5126,"count":30,"type":"VEC2","name":"accessorUVs"},{"bufferView":0,"byteOffset":96828,"componentType":5123,"count":216,"type":"SCALAR","name":"accessorIndices"},{"bufferView":1,"byteOffset":1161936,"componentType":5126,"count":216,"max":[23.7910271,-0.721235335,15.2910652],"min":[-23.490612,-1.8308351,-15.28549],"type":"VEC3","name":"accessorPositions"},{"bufferView":1,"byteOffset":1164528,"componentType":5126,"count":216,"type":"VEC3","name":"accessorNormals"},{"bufferView":2,"byteOffset":387312,"componentType":5126,"count":216,"type":"VEC2","name":"accessorUVs"},{"bufferView":0,"byteOffset":97260,"componentType":5123,"count":1224,"type":"SCALAR","name":"accessorIndices"},{"bufferView":1,"byteOffset":1167120,"componentType":5126,"count":1224,"max":[40.42826,-0.721235335,15.6230087],"min":[-40.4283371,-1.83083522,-15.6229992],"type":"VEC3","name":"accessorPositions"},{"bufferView":1,"byteOffset":1181808,"componentType":5126,"count":1224,"type":"VEC3","name":"accessorNormals"},{"bufferView":2,"byteOffset":389040,"componentType":5126,"count":1224,"type":"VEC2","name":"accessorUVs"},{"bufferView":0,"byteOffset":99708,"componentType":5123,"count":5688,"type":"SCALAR","name":"accessorIndices"},{"bufferView":1,"byteOffset":1196496,"componentType":5126,"count":5688,"max":[22.970047,1.82564855,9.781517],"min":[-22.2538338,-1.82256365,-9.736886],"type":"VEC3","name":"accessorPositions"},{"bufferView":1,"byteOffset":1264752,"componentType":5126,"count":5688,"type":"VEC3","name":"accessorNormals"},{"bufferView":2,"byteOffset":398832,"componentType":5126,"count":5688,"type":"VEC2","name":"accessorUVs"},{"bufferView":0,"byteOffset":111084,"componentType":5123,"count":1872,"type":"SCALAR","name":"accessorIndices"},{"bufferView":1,"byteOffset":1333008,"componentType":5126,"count":1872,"max":[40.4375763,-0.7129661,15.63238],"min":[-40.4375763,-1.82256711,-15.632369],"type":"VEC3","name":"accessorPositions"},{"bufferView":1,"byteOffset":1355472,"componentType":5126,"count":1872,"type":"VEC3","name":"accessorNormals"},{"bufferView":2,"byteOffset":444336,"componentType":5126,"count":1872,"type":"VEC2","name":"accessorUVs"},{"bufferView":0,"byteOffset":114828,"componentType":5123,"count":216,"type":"SCALAR","name":"accessorIndices"},{"bufferView":1,"byteOffset":1377936,"componentType":5126,"count":216,"max":[23.7910461,-0.7129668,15.2910767],"min":[-23.49061,-1.82256687,-15.28549],"type":"VEC3","name":"accessorPositions"},{"bufferView":1,"byteOffset":1380528,"componentType":5126,"count":216,"type":"VEC3","name":"accessorNormals"},{"bufferView":2,"byteOffset":459312,"componentType":5126,"count":216,"type":"VEC2","name":"accessorUVs"},{"bufferView":0,"byteOffset":115260,"componentType":5123,"count":30,"type":"SCALAR","name":"accessorIndices"},{"bufferView":1,"byteOffset":1383120,"componentType":5126,"count":30,"max":[40.4375763,-1.82256663,15.6323776],"min":[-40.43757,-1.89191663,-15.6323633],"type":"VEC3","name":"accessorPositions"},{"bufferView":1,"byteOffset":1383480,"componentType":5126,"count":30,"type":"VEC3","name":"accessorNormals"},{"bufferView":2,"byteOffset":461040,"componentType":5126,"count":30,"type":"VEC2","name":"accessorUVs"},{"bufferView":0,"byteOffset":115320,"componentType":5123,"count":36,"type":"SCALAR","name":"accessorIndices"},{"bufferView":1,"byteOffset":1383840,"componentType":5126,"count":36,"max":[-28.023737,-1.68386674,9.775873],"min":[-31.76224,-1.82256722,7.42489052],"type":"VEC3","name":"accessorPositions"},{"bufferView":1,"byteOffset":1384272,"componentType":5126,"count":36,"type":"VEC3","name":"accessorNormals"},{"bufferView":2,"byteOffset":461280,"componentType":5126,"count":36,"type":"VEC2","name":"accessorUVs"},{"bufferView":0,"byteOffset":115392,"componentType":5123,"count":324,"type":"SCALAR","name":"accessorIndices"},{"bufferView":1,"byteOffset":1384704,"componentType":5126,"count":324,"max":[-29.21231,-0.435567439,9.391777],"min":[-30.8096371,-1.82256794,7.804741],"type":"VEC3","name":"accessorPositions"},{"bufferView":1,"byteOffset":1388592,"componentType":5126,"count":324,"type":"VEC3","name":"accessorNormals"},{"bufferView":2,"byteOffset":461568,"componentType":5126,"count":324,"type":"VEC2","name":"accessorUVs"},{"bufferView":0,"byteOffset":116040,"componentType":5123,"count":1224,"type":"SCALAR","name":"accessorIndices"},{"bufferView":1,"byteOffset":1392480,"componentType":5126,"count":1224,"max":[40.4282761,-0.712966144,15.6230145],"min":[-40.4283371,-1.82256687,-15.6229992],"type":"VEC3","name":"accessorPositions"},{"bufferView":1,"byteOffset":1407168,"componentType":5126,"count":1224,"type":"VEC3","name":"accessorNormals"},{"bufferView":2,"byteOffset":464160,"componentType":5126,"count":1224,"type":"VEC2","name":"accessorUVs"},{"bufferView":0,"byteOffset":118488,"componentType":5123,"count":12090,"type":"SCALAR","name":"accessorIndices"},{"bufferView":1,"byteOffset":1421856,"componentType":5126,"count":12090,"max":[36.08509,1.89191747,4.91700649],"min":[-37.602787,-1.82283115,-5.114802],"type":"VEC3","name":"accessorPositions"},{"bufferView":1,"byteOffset":1566936,"componentType":5126,"count":12090,"type":"VEC3","name":"accessorNormals"},{"bufferView":2,"byteOffset":473952,"componentType":5126,"count":12090,"type":"VEC2","name":"accessorUVs"}],"bufferViews":[{"buffer":0,"byteLength":142668,"name":"bufferViewScalar"},{"buffer":0,"byteOffset":142668,"byteLength":1712016,"byteStride":12,"name":"bufferViewFloatVec3"},{"buffer":0,"byteOffset":1854684,"byteLength":570672,"byteStride":8,"name":"bufferViewFloatVec2"}],"buffers":[{"uri":"tileset.bin","byteLength":2425356}],"materials":[{"pbrMetallicRoughness":{"baseColorTexture":{"index":0},"metallicFactor":0.0,"roughnessFactor":0.450053632},"name":"anc0055"},{"pbrMetallicRoughness":{"baseColorTexture":{"index":1},"metallicFactor":0.0,"roughnessFactor":0.450053632},"doubleSided":true,"name":"anc0057"},{"pbrMetallicRoughness":{"baseColorTexture":{"index":2},"metallicFactor":0.0,"roughnessFactor":0.450053632},"doubleSided":true,"name":"anc0058"},{"pbrMetallicRoughness":{"baseColorTexture":{"index":3},"metallicFactor":0.0,"roughnessFactor":0.450053632},"name":"anc0052"},{"pbrMetallicRoughness":{"baseColorTexture":{"index":4},"metallicFactor":0.0,"roughnessFactor":0.450053632},"doubleSided":true,"name":"anc0050"},{"pbrMetallicRoughness":{"baseColorTexture":{"index":5},"metallicFactor":0.0,"roughnessFactor":0.450053632},"name":"anc0059"},{"pbrMetallicRoughness":{"baseColorTexture":{"index":6},"metallicFactor":0.0,"roughnessFactor":0.450053632},"name":"anc0060"},{"pbrMetallicRoughness":{"baseColorTexture":{"index":7},"metallicFactor":0.0,"roughnessFactor":0.450053632},"name":"anc0061"},{"pbrMetallicRoughness":{"baseColorTexture":{"index":8},"metallicFactor":0.0,"roughnessFactor":0.450053632},"name":"anc0062"},{"pbrMetallicRoughness":{"baseColorTexture":{"index":9},"metallicFactor":0.0,"roughnessFactor":0.450053632},"name":"anc0053"},{"pbrMetallicRoughness":{"baseColorTexture":{"index":10},"metallicFactor":0.0,"roughnessFactor":0.450053632},"name":"anc0063"},{"pbrMetallicRoughness":{"baseColorTexture":{"index":11},"metallicFactor":0.0,"roughnessFactor":0.450053632},"doubleSided":true,"name":"anc0042"},{"pbrMetallicRoughness":{"baseColorTexture":{"index":12},"metallicFactor":0.0,"roughnessFactor":0.450053632},"doubleSided":true,"name":"anc0051"},{"pbrMetallicRoughness":{"baseColorTexture":{"index":13},"metallicFactor":0.0,"roughnessFactor":0.450053632},"name":"anc0054"},{"pbrMetallicRoughness":{"baseColorTexture":{"index":14},"metallicFactor":0.0,"roughnessFactor":0.450053632},"name":"anc0049"}],"textures":[{"sampler":0,"source":0,"name":"axcj0011.jpg"},{"sampler":0,"source":1,"name":"axcj0012.jpg"},{"sampler":0,"source":2,"name":"axcj0013.jpg"},{"sampler":0,"source":3,"name":"axcj0007.jpg"},{"sampler":0,"source":4,"name":"axcj0005.jpg"},{"sampler":0,"source":5,"name":"axcj0014.jpg"},{"sampler":0,"source":6,"name":"axcj0015.jpg"},{"sampler":0,"source":7,"name":"axcj0016.jpg"},{"sampler":0,"source":8,"name":"axcj0017.jpg"},{"sampler":0,"source":9,"name":"axcj0004.jpg"},{"sampler":0,"source":10,"name":"axcj0018.jpg"},{"sampler":0,"source":11,"name":"ycd04.jpg"},{"sampler":0,"source":12,"name":"axcj0003.jpg"},{"sampler":0,"source":13,"name":"axcj0006.jpg"},{"sampler":0,"source":14,"name":"axcj0002.jpg"}],"images":[{"uri":"./axcj0011.jpg"},{"uri":"./axcj0012.jpg"},{"uri":"./axcj0013.jpg"},{"uri":"./axcj0007.jpg"},{"uri":"./axcj0005.jpg"},{"uri":"./axcj0014.jpg"},{"uri":"./axcj0015.jpg"},{"uri":"./axcj0016.jpg"},{"uri":"./axcj0017.jpg"},{"uri":"./axcj0004.jpg"},{"uri":"./axcj0018.jpg"},{"uri":"./ycd04.jpg"},{"uri":"./axcj0003.jpg"},{"uri":"./axcj0006.jpg"},{"uri":"./axcj0002.jpg"}],"samplers":[{"magFilter":9729,"minFilter":9987}]}