{"asset":{"version":"2.0","generator":"babylon.js glTF exporter for 3dsmax 2019 v20200721.1"},"scene":0,"scenes":[{"nodes":[0,1,2,3]}],"nodes":[{"mesh":0,"translation":[0.354324341,9.70006,6.395813],"name":"400车间402工段-3F-2F"},{"mesh":1,"translation":[0.243179321,3.70000982,-0.450927734],"name":"400车间402工段-3F-1F"},{"mesh":2,"translation":[-1.0447998,12.7598133,6.87591553],"name":"400车间402工段-3F-3F"},{"name":"Default light"}],"meshes":[{"primitives":[{"attributes":{"POSITION":1,"NORMAL":2,"TEXCOORD_0":3},"indices":0,"material":0},{"attributes":{"POSITION":5,"NORMAL":6,"TEXCOORD_0":7},"indices":4,"material":1},{"attributes":{"POSITION":9,"NORMAL":10,"TEXCOORD_0":11},"indices":8,"material":2},{"attributes":{"POSITION":13,"NORMAL":14,"TEXCOORD_0":15},"indices":12,"material":3},{"attributes":{"POSITION":17,"NORMAL":18,"TEXCOORD_0":19},"indices":16,"material":4},{"attributes":{"POSITION":21,"NORMAL":22,"TEXCOORD_0":23},"indices":20,"material":5},{"attributes":{"POSITION":25,"NORMAL":26,"TEXCOORD_0":27},"indices":24,"material":6},{"attributes":{"POSITION":29,"NORMAL":30,"TEXCOORD_0":31},"indices":28,"material":7}],"name":"400车间402工段-3F-2F"},{"primitives":[{"attributes":{"POSITION":33,"NORMAL":34,"TEXCOORD_0":35},"indices":32,"material":1},{"attributes":{"POSITION":37,"NORMAL":38,"TEXCOORD_0":39},"indices":36,"material":8},{"attributes":{"POSITION":41,"NORMAL":42,"TEXCOORD_0":43},"indices":40,"material":9},{"attributes":{"POSITION":45,"NORMAL":46,"TEXCOORD_0":47},"indices":44,"material":10},{"attributes":{"POSITION":49,"NORMAL":50,"TEXCOORD_0":51},"indices":48,"material":2},{"attributes":{"POSITION":53,"NORMAL":54,"TEXCOORD_0":55},"indices":52,"material":11},{"attributes":{"POSITION":57,"NORMAL":58,"TEXCOORD_0":59},"indices":56,"material":6},{"attributes":{"POSITION":61,"NORMAL":62,"TEXCOORD_0":63},"indices":60,"material":12},{"attributes":{"POSITION":65,"NORMAL":66,"TEXCOORD_0":67},"indices":64,"material":13},{"attributes":{"POSITION":69,"NORMAL":70,"TEXCOORD_0":71},"indices":68,"material":14},{"attributes":{"POSITION":73,"NORMAL":74,"TEXCOORD_0":75},"indices":72,"material":5},{"attributes":{"POSITION":77,"NORMAL":78,"TEXCOORD_0":79},"indices":76,"material":4},{"attributes":{"POSITION":81,"NORMAL":82,"TEXCOORD_0":83},"indices":80,"material":3},{"attributes":{"POSITION":85,"NORMAL":86,"TEXCOORD_0":87},"indices":84,"material":7},{"attributes":{"POSITION":89,"NORMAL":90,"TEXCOORD_0":91},"indices":88,"material":0},{"attributes":{"POSITION":93,"NORMAL":94,"TEXCOORD_0":95},"indices":92,"material":15},{"attributes":{"POSITION":97,"NORMAL":98,"TEXCOORD_0":99},"indices":96,"material":16}],"name":"400车间402工段-3F-1F"},{"primitives":[{"attributes":{"POSITION":101,"NORMAL":102,"TEXCOORD_0":103},"indices":100,"material":6},{"attributes":{"POSITION":105,"NORMAL":106,"TEXCOORD_0":107},"indices":104,"material":0},{"attributes":{"POSITION":109,"NORMAL":110,"TEXCOORD_0":111},"indices":108,"material":4},{"attributes":{"POSITION":113,"NORMAL":114,"TEXCOORD_0":115},"indices":112,"material":7},{"attributes":{"POSITION":117,"NORMAL":118,"TEXCOORD_0":119},"indices":116,"material":2},{"attributes":{"POSITION":121,"NORMAL":122,"TEXCOORD_0":123},"indices":120,"material":3},{"attributes":{"POSITION":125,"NORMAL":126,"TEXCOORD_0":127},"indices":124,"material":1}],"name":"400车间402工段-3F-3F"}],"accessors":[{"bufferView":0,"componentType":5123,"count":24540,"type":"SCALAR","name":"accessorIndices"},{"bufferView":1,"componentType":5126,"count":24540,"max":[19.460247,2.55000019,2.98627567],"min":[-21.24112,-2.5,-2.28627753],"type":"VEC3","name":"accessorPositions"},{"bufferView":1,"byteOffset":294480,"componentType":5126,"count":24540,"type":"VEC3","name":"accessorNormals"},{"bufferView":2,"componentType":5126,"count":24540,"type":"VEC2","name":"accessorUVs"},{"bufferView":0,"byteOffset":49080,"componentType":5123,"count":174,"type":"SCALAR","name":"accessorIndices"},{"bufferView":1,"byteOffset":588960,"componentType":5126,"count":174,"max":[21.02723,0.0499995947,5.04458046],"min":[-22.8488579,-2.50000048,-5.044572],"type":"VEC3","name":"accessorPositions"},{"bufferView":1,"byteOffset":591048,"componentType":5126,"count":174,"type":"VEC3","name":"accessorNormals"},{"bufferView":2,"byteOffset":196320,"componentType":5126,"count":174,"type":"VEC2","name":"accessorUVs"},{"bufferView":0,"byteOffset":49428,"componentType":5123,"count":33,"type":"SCALAR","name":"accessorIndices"},{"bufferView":1,"byteOffset":593136,"componentType":5126,"count":33,"max":[22.8248138,0.0500020981,4.43989563],"min":[-17.9803543,-2.45000029,-4.773616],"type":"VEC3","name":"accessorPositions"},{"bufferView":1,"byteOffset":593532,"componentType":5126,"count":33,"type":"VEC3","name":"accessorNormals"},{"bufferView":2,"byteOffset":197712,"componentType":5126,"count":33,"type":"VEC2","name":"accessorUVs"},{"bufferView":0,"byteOffset":49496,"componentType":5123,"count":36,"type":"SCALAR","name":"accessorIndices"},{"bufferView":1,"byteOffset":593928,"componentType":5126,"count":36,"max":[22.8262253,2.55000019,4.49421263],"min":[-21.9367161,-2.500001,-4.72788],"type":"VEC3","name":"accessorPositions"},{"bufferView":1,"byteOffset":594360,"componentType":5126,"count":36,"type":"VEC3","name":"accessorNormals"},{"bufferView":2,"byteOffset":197976,"componentType":5126,"count":36,"type":"VEC2","name":"accessorUVs"},{"bufferView":0,"byteOffset":49568,"componentType":5123,"count":228,"type":"SCALAR","name":"accessorIndices"},{"bufferView":1,"byteOffset":594792,"componentType":5126,"count":228,"max":[22.8488541,2.55000019,5.04458046],"min":[-22.8385811,-2.500001,-5.03430939],"type":"VEC3","name":"accessorPositions"},{"bufferView":1,"byteOffset":597528,"componentType":5126,"count":228,"type":"VEC3","name":"accessorNormals"},{"bufferView":2,"byteOffset":198264,"componentType":5126,"count":228,"type":"VEC2","name":"accessorUVs"},{"bufferView":0,"byteOffset":50024,"componentType":5123,"count":480,"type":"SCALAR","name":"accessorIndices"},{"bufferView":1,"byteOffset":600264,"componentType":5126,"count":480,"max":[21.0272141,2.55000019,4.392507],"min":[-22.795393,-2.50000048,-4.044942],"type":"VEC3","name":"accessorPositions"},{"bufferView":1,"byteOffset":606024,"componentType":5126,"count":480,"type":"VEC3","name":"accessorNormals"},{"bufferView":2,"byteOffset":200088,"componentType":5126,"count":480,"type":"VEC2","name":"accessorUVs"},{"bufferView":0,"byteOffset":50984,"componentType":5123,"count":5580,"type":"SCALAR","name":"accessorIndices"},{"bufferView":1,"byteOffset":611784,"componentType":5126,"count":5580,"max":[8.922554,1.09076285,3.2458086],"min":[-22.0273266,-2.45000029,-4.552285],"type":"VEC3","name":"accessorPositions"},{"bufferView":1,"byteOffset":678744,"componentType":5126,"count":5580,"type":"VEC3","name":"accessorNormals"},{"bufferView":2,"byteOffset":203928,"componentType":5126,"count":5580,"type":"VEC2","name":"accessorUVs"},{"bufferView":0,"byteOffset":62144,"componentType":5123,"count":180,"type":"SCALAR","name":"accessorIndices"},{"bufferView":1,"byteOffset":745704,"componentType":5126,"count":180,"max":[22.8262253,2.55000019,4.49421263],"min":[-22.015831,-2.55000067,-4.773655],"type":"VEC3","name":"accessorPositions"},{"bufferView":1,"byteOffset":747864,"componentType":5126,"count":180,"type":"VEC3","name":"accessorNormals"},{"bufferView":2,"byteOffset":248568,"componentType":5126,"count":180,"type":"VEC2","name":"accessorUVs"},{"bufferView":0,"byteOffset":62504,"componentType":5123,"count":138,"type":"SCALAR","name":"accessorIndices"},{"bufferView":1,"byteOffset":750024,"componentType":5126,"count":138,"max":[21.1383514,0.05004847,11.2391968],"min":[-23.0806961,-3.499951,-11.6077881],"type":"VEC3","name":"accessorPositions"},{"bufferView":1,"byteOffset":751680,"componentType":5126,"count":138,"type":"VEC3","name":"accessorNormals"},{"bufferView":2,"byteOffset":250008,"componentType":5126,"count":138,"type":"VEC2","name":"accessorUVs"},{"bufferView":0,"byteOffset":62780,"componentType":5123,"count":630,"type":"SCALAR","name":"accessorIndices"},{"bufferView":1,"byteOffset":753336,"componentType":5126,"count":630,"max":[18.74649,0.334335327,-4.12381],"min":[-20.947319,-0.6697351,-10.0597229],"type":"VEC3","name":"accessorPositions"},{"bufferView":1,"byteOffset":760896,"componentType":5126,"count":630,"type":"VEC3","name":"accessorNormals"},{"bufferView":2,"byteOffset":251112,"componentType":5126,"count":630,"type":"VEC2","name":"accessorUVs"},{"bufferView":0,"byteOffset":64040,"componentType":5123,"count":5922,"type":"SCALAR","name":"accessorIndices"},{"bufferView":1,"byteOffset":768456,"componentType":5126,"count":5922,"max":[19.9994354,-3.24333286,-1.47354126],"min":[-22.1330948,-3.44995,-9.917755],"type":"VEC3","name":"accessorPositions"},{"bufferView":1,"byteOffset":839520,"componentType":5126,"count":5922,"type":"VEC3","name":"accessorNormals"},{"bufferView":2,"byteOffset":256152,"componentType":5126,"count":5922,"type":"VEC2","name":"accessorUVs"},{"bufferView":0,"byteOffset":75884,"componentType":5123,"count":3192,"type":"SCALAR","name":"accessorIndices"},{"bufferView":1,"byteOffset":910584,"componentType":5126,"count":3192,"max":[20.4284821,-3.01731539,10.6047058],"min":[-20.707222,-3.44995117,-0.441925049],"type":"VEC3","name":"accessorPositions"},{"bufferView":1,"byteOffset":948888,"componentType":5126,"count":3192,"type":"VEC3","name":"accessorNormals"},{"bufferView":2,"byteOffset":303528,"componentType":5126,"count":3192,"type":"VEC2","name":"accessorUVs"},{"bufferView":0,"byteOffset":82268,"componentType":5123,"count":24,"type":"SCALAR","name":"accessorIndices"},{"bufferView":1,"byteOffset":987192,"componentType":5126,"count":24,"max":[23.0807037,0.0500494242,9.786987],"min":[-17.8692131,0.05004871,2.07296753],"type":"VEC3","name":"accessorPositions"},{"bufferView":1,"byteOffset":987480,"componentType":5126,"count":24,"type":"VEC3","name":"accessorNormals"},{"bufferView":2,"byteOffset":329064,"componentType":5126,"count":24,"type":"VEC2","name":"accessorUVs"},{"bufferView":0,"byteOffset":82316,"componentType":5123,"count":144,"type":"SCALAR","name":"accessorIndices"},{"bufferView":1,"byteOffset":987768,"componentType":5126,"count":144,"max":[20.8244247,-2.649951,-0.171478271],"min":[-23.08068,-3.449951,-11.6077881],"type":"VEC3","name":"accessorPositions"},{"bufferView":1,"byteOffset":989496,"componentType":5126,"count":144,"type":"VEC3","name":"accessorNormals"},{"bufferView":2,"byteOffset":329256,"componentType":5126,"count":144,"type":"VEC2","name":"accessorUVs"},{"bufferView":0,"byteOffset":82604,"componentType":5123,"count":7020,"type":"SCALAR","name":"accessorIndices"},{"bufferView":1,"byteOffset":991224,"componentType":5126,"count":7020,"max":[17.3843231,-2.91016626,10.1019287],"min":[-17.84974,-3.500051,-10.7011108],"type":"VEC3","name":"accessorPositions"},{"bufferView":1,"byteOffset":1075464,"componentType":5126,"count":7020,"type":"VEC3","name":"accessorNormals"},{"bufferView":2,"byteOffset":330408,"componentType":5126,"count":7020,"type":"VEC2","name":"accessorUVs"},{"bufferView":0,"byteOffset":96644,"componentType":5123,"count":1386,"type":"SCALAR","name":"accessorIndices"},{"bufferView":1,"byteOffset":1159704,"componentType":5126,"count":1386,"max":[20.160965,0.33433485,-2.54324341],"min":[-20.80397,-3.40334129,-10.0596924],"type":"VEC3","name":"accessorPositions"},{"bufferView":1,"byteOffset":1176336,"componentType":5126,"count":1386,"type":"VEC3","name":"accessorNormals"},{"bufferView":2,"byteOffset":386568,"componentType":5126,"count":1386,"type":"VEC2","name":"accessorUVs"},{"bufferView":0,"byteOffset":99416,"componentType":5123,"count":10944,"type":"SCALAR","name":"accessorIndices"},{"bufferView":1,"byteOffset":1192968,"componentType":5126,"count":10944,"max":[20.3774338,-3.150508,10.5303955],"min":[-20.6328964,-3.3967042,-0.405365],"type":"VEC3","name":"accessorPositions"},{"bufferView":1,"byteOffset":1324296,"componentType":5126,"count":10944,"type":"VEC3","name":"accessorNormals"},{"bufferView":2,"byteOffset":397656,"componentType":5126,"count":10944,"type":"VEC2","name":"accessorUVs"},{"bufferView":0,"byteOffset":121304,"componentType":5123,"count":4032,"type":"SCALAR","name":"accessorIndices"},{"bufferView":1,"byteOffset":1455624,"componentType":5126,"count":4032,"max":[19.9299164,0.335234165,-1.5375061],"min":[-22.0816116,-3.40334129,-9.848175],"type":"VEC3","name":"accessorPositions"},{"bufferView":1,"byteOffset":1504008,"componentType":5126,"count":4032,"type":"VEC3","name":"accessorNormals"},{"bufferView":2,"byteOffset":485208,"componentType":5126,"count":4032,"type":"VEC2","name":"accessorUVs"},{"bufferView":0,"byteOffset":129368,"componentType":5123,"count":480,"type":"SCALAR","name":"accessorIndices"},{"bufferView":1,"byteOffset":1552392,"componentType":5126,"count":480,"max":[21.138382,3.50004959,11.2391968],"min":[-22.684227,-3.4499507,2.80175781],"type":"VEC3","name":"accessorPositions"},{"bufferView":1,"byteOffset":1558152,"componentType":5126,"count":480,"type":"VEC3","name":"accessorNormals"},{"bufferView":2,"byteOffset":517464,"componentType":5126,"count":480,"type":"VEC2","name":"accessorUVs"},{"bufferView":0,"byteOffset":130328,"componentType":5123,"count":138,"type":"SCALAR","name":"accessorIndices"},{"bufferView":1,"byteOffset":1563912,"componentType":5126,"count":138,"max":[23.0807037,3.50005,10.7795715],"min":[-21.3410721,-3.39995,2.072998],"type":"VEC3","name":"accessorPositions"},{"bufferView":1,"byteOffset":1565568,"componentType":5126,"count":138,"type":"VEC3","name":"accessorNormals"},{"bufferView":2,"byteOffset":521304,"componentType":5126,"count":138,"type":"VEC2","name":"accessorUVs"},{"bufferView":0,"byteOffset":130604,"componentType":5123,"count":24,"type":"SCALAR","name":"accessorIndices"},{"bufferView":1,"byteOffset":1567224,"componentType":5126,"count":24,"max":[23.0349579,3.500049,8.124664],"min":[-21.34108,-3.39995,2.11877441],"type":"VEC3","name":"accessorPositions"},{"bufferView":1,"byteOffset":1567512,"componentType":5126,"count":24,"type":"VEC3","name":"accessorNormals"},{"bufferView":2,"byteOffset":522408,"componentType":5126,"count":24,"type":"VEC2","name":"accessorUVs"},{"bufferView":0,"byteOffset":130652,"componentType":5123,"count":120,"type":"SCALAR","name":"accessorIndices"},{"bufferView":1,"byteOffset":1567800,"componentType":5126,"count":120,"max":[23.0807037,3.50004816,9.787079],"min":[-21.3678818,-3.49995041,2.073059],"type":"VEC3","name":"accessorPositions"},{"bufferView":1,"byteOffset":1569240,"componentType":5126,"count":120,"type":"VEC3","name":"accessorNormals"},{"bufferView":2,"byteOffset":522600,"componentType":5126,"count":120,"type":"VEC2","name":"accessorUVs"},{"bufferView":0,"byteOffset":130892,"componentType":5123,"count":7086,"type":"SCALAR","name":"accessorIndices"},{"bufferView":1,"byteOffset":1570680,"componentType":5126,"count":7086,"max":[19.9786224,3.500051,11.6077576],"min":[-21.6854248,-3.48011446,-10.9441528],"type":"VEC3","name":"accessorPositions"},{"bufferView":1,"byteOffset":1655712,"componentType":5126,"count":7086,"type":"VEC3","name":"accessorNormals"},{"bufferView":2,"byteOffset":523560,"componentType":5126,"count":7086,"type":"VEC2","name":"accessorUVs"},{"bufferView":0,"byteOffset":145064,"componentType":5123,"count":7968,"type":"SCALAR","name":"accessorIndices"},{"bufferView":1,"byteOffset":1740744,"componentType":5126,"count":7968,"max":[19.9299164,0.581413746,-1.5375061],"min":[-22.0816116,-0.6340517,-9.848175],"type":"VEC3","name":"accessorPositions"},{"bufferView":1,"byteOffset":1836360,"componentType":5126,"count":7968,"type":"VEC3","name":"accessorNormals"},{"bufferView":2,"byteOffset":580248,"componentType":5126,"count":7968,"type":"VEC2","name":"accessorUVs"},{"bufferView":0,"byteOffset":161000,"componentType":5123,"count":7182,"type":"SCALAR","name":"accessorIndices"},{"bufferView":1,"byteOffset":1931976,"componentType":5126,"count":7182,"max":[20.16098,0.6495061,-1.537384],"min":[-22.0816,-3.40334129,-10.0596924],"type":"VEC3","name":"accessorPositions"},{"bufferView":1,"byteOffset":2018160,"componentType":5126,"count":7182,"type":"VEC3","name":"accessorNormals"},{"bufferView":2,"byteOffset":643992,"componentType":5126,"count":7182,"type":"VEC2","name":"accessorUVs"},{"bufferView":0,"byteOffset":175364,"componentType":5123,"count":7488,"type":"SCALAR","name":"accessorIndices"},{"bufferView":1,"byteOffset":2104344,"componentType":5126,"count":7488,"max":[14.4376011,0.2541294,3.26338148],"min":[-15.8275242,-0.459754944,-2.80306768],"type":"VEC3","name":"accessorPositions"},{"bufferView":1,"byteOffset":2194200,"componentType":5126,"count":7488,"type":"VEC3","name":"accessorNormals"},{"bufferView":2,"byteOffset":701448,"componentType":5126,"count":7488,"type":"VEC2","name":"accessorUVs"},{"bufferView":0,"byteOffset":190340,"componentType":5123,"count":10260,"type":"SCALAR","name":"accessorIndices"},{"bufferView":1,"byteOffset":2284056,"componentType":5126,"count":10260,"max":[16.6102276,0.6097536,2.10787749],"min":[-17.4884949,-0.509755135,-2.69849825],"type":"VEC3","name":"accessorPositions"},{"bufferView":1,"byteOffset":2407176,"componentType":5126,"count":10260,"type":"VEC3","name":"accessorNormals"},{"bufferView":2,"byteOffset":761352,"componentType":5126,"count":10260,"type":"VEC2","name":"accessorUVs"},{"bufferView":0,"byteOffset":210860,"componentType":5123,"count":72,"type":"SCALAR","name":"accessorIndices"},{"bufferView":1,"byteOffset":2530296,"componentType":5126,"count":72,"max":[22.2790871,0.3402462,5.18278],"min":[-22.279089,-0.509755135,-5.182782],"type":"VEC3","name":"accessorPositions"},{"bufferView":1,"byteOffset":2531160,"componentType":5126,"count":72,"type":"VEC3","name":"accessorNormals"},{"bufferView":2,"byteOffset":843432,"componentType":5126,"count":72,"type":"VEC2","name":"accessorUVs"},{"bufferView":0,"byteOffset":211004,"componentType":5123,"count":60,"type":"SCALAR","name":"accessorIndices"},{"bufferView":1,"byteOffset":2532024,"componentType":5126,"count":60,"max":[20.4864063,-0.459754944,4.01386547],"min":[-22.279089,-0.6097536,-5.099276],"type":"VEC3","name":"accessorPositions"},{"bufferView":1,"byteOffset":2532744,"componentType":5126,"count":60,"type":"VEC3","name":"accessorNormals"},{"bufferView":2,"byteOffset":844008,"componentType":5126,"count":60,"type":"VEC2","name":"accessorUVs"},{"bufferView":0,"byteOffset":211124,"componentType":5123,"count":12,"type":"SCALAR","name":"accessorIndices"},{"bufferView":1,"byteOffset":2533464,"componentType":5126,"count":12,"max":[-20.5503559,-0.459754944,-2.6392765],"min":[-22.279089,-0.459754944,-5.0970993],"type":"VEC3","name":"accessorPositions"},{"bufferView":1,"byteOffset":2533608,"componentType":5126,"count":12,"type":"VEC3","name":"accessorNormals"},{"bufferView":2,"byteOffset":844488,"componentType":5126,"count":12,"type":"VEC2","name":"accessorUVs"},{"bufferView":0,"byteOffset":211148,"componentType":5123,"count":6,"type":"SCALAR","name":"accessorIndices"},{"bufferView":1,"byteOffset":2533752,"componentType":5126,"count":6,"max":[-20.5107765,-0.459754944,-4.122468],"min":[-20.6167183,-0.509755135,-5.099276],"type":"VEC3","name":"accessorPositions"},{"bufferView":1,"byteOffset":2533824,"componentType":5126,"count":6,"type":"VEC3","name":"accessorNormals"},{"bufferView":2,"byteOffset":844584,"componentType":5126,"count":6,"type":"VEC2","name":"accessorUVs"},{"bufferView":0,"byteOffset":211160,"componentType":5123,"count":66,"type":"SCALAR","name":"accessorIndices"},{"bufferView":1,"byteOffset":2533896,"componentType":5126,"count":66,"max":[22.2790871,-0.459754,5.18278],"min":[-22.2127113,-0.5097542,-5.182782],"type":"VEC3","name":"accessorPositions"},{"bufferView":1,"byteOffset":2534688,"componentType":5126,"count":66,"type":"VEC3","name":"accessorNormals"},{"bufferView":2,"byteOffset":844632,"componentType":5126,"count":66,"type":"VEC2","name":"accessorUVs"}],"bufferViews":[{"buffer":0,"byteLength":211292,"name":"bufferViewScalar"},{"buffer":0,"byteOffset":211292,"byteLength":2535480,"byteStride":12,"name":"bufferViewFloatVec3"},{"buffer":0,"byteOffset":2746772,"byteLength":845160,"byteStride":8,"name":"bufferViewFloatVec2"}],"buffers":[{"uri":"tileset.bin","byteLength":3591932}],"materials":[{"pbrMetallicRoughness":{"baseColorTexture":{"index":0},"metallicFactor":0.0,"roughnessFactor":0.450053632},"name":"anc0055"},{"pbrMetallicRoughness":{"baseColorTexture":{"index":1},"metallicFactor":0.0,"roughnessFactor":0.450053632},"doubleSided":true,"name":"anc0042"},{"pbrMetallicRoughness":{"baseColorTexture":{"index":2},"metallicFactor":0.0,"roughnessFactor":0.450053632},"name":"anc0099"},{"pbrMetallicRoughness":{"baseColorTexture":{"index":3},"metallicFactor":0.0,"roughnessFactor":0.450053632},"name":"anc0100"},{"pbrMetallicRoughness":{"baseColorTexture":{"index":4},"metallicFactor":0.0,"roughnessFactor":0.450053632},"doubleSided":true,"name":"anc0075"},{"pbrMetallicRoughness":{"baseColorTexture":{"index":5},"metallicFactor":0.0,"roughnessFactor":0.450053632},"doubleSided":true,"name":"anc0050"},{"pbrMetallicRoughness":{"baseColorTexture":{"index":6},"metallicFactor":0.0,"roughnessFactor":0.450053632},"name":"anc0053"},{"pbrMetallicRoughness":{"baseColorTexture":{"index":7},"metallicFactor":0.0,"roughnessFactor":0.450053632},"name":"anc0098"},{"pbrMetallicRoughness":{"baseColorTexture":{"index":8},"metallicFactor":0.0,"roughnessFactor":0.450053632},"name":"anc0103"},{"pbrMetallicRoughness":{"baseColorTexture":{"index":9},"metallicFactor":0.0,"roughnessFactor":0.450053632},"name":"anc0104"},{"pbrMetallicRoughness":{"baseColorTexture":{"index":10},"metallicFactor":0.0,"roughnessFactor":0.450053632},"doubleSided":true,"name":"anc0057"},{"pbrMetallicRoughness":{"baseColorTexture":{"index":11},"metallicFactor":0.0,"roughnessFactor":0.450053632},"name":"anc0054"},{"pbrMetallicRoughness":{"baseColorTexture":{"index":12},"metallicFactor":0.0,"roughnessFactor":0.450053632},"doubleSided":true,"name":"anc0105"},{"pbrMetallicRoughness":{"baseColorTexture":{"index":13},"metallicFactor":0.0,"roughnessFactor":0.450053632},"doubleSided":true,"name":"anc0058"},{"pbrMetallicRoughness":{"baseColorTexture":{"index":14},"metallicFactor":0.0,"roughnessFactor":0.450053632},"name":"anc0106"},{"pbrMetallicRoughness":{"baseColorTexture":{"index":15},"metallicFactor":0.0,"roughnessFactor":0.450053632},"name":"anc0107"},{"pbrMetallicRoughness":{"baseColorTexture":{"index":16},"metallicFactor":0.0,"roughnessFactor":0.450053632},"doubleSided":true,"name":"anc0108"}],"textures":[{"sampler":0,"source":0,"name":"axcj0011.jpg"},{"sampler":0,"source":1,"name":"ycd04.jpg"},{"sampler":0,"source":2,"name":"axcj0035.jpg"},{"sampler":0,"source":3,"name":"axcj0036.jpg"},{"sampler":0,"source":4,"name":"axcj0019.png"},{"sampler":0,"source":5,"name":"axcj0005.jpg"},{"sampler":0,"source":6,"name":"axcj0004.jpg"},{"sampler":0,"source":7,"name":"axcj0034.jpg"},{"sampler":0,"source":8,"name":"axcj0026.jpg"},{"sampler":0,"source":9,"name":"axcj0027.jpg"},{"sampler":0,"source":10,"name":"axcj0012.jpg"},{"sampler":0,"source":11,"name":"axcj0006.jpg"},{"sampler":0,"source":12,"name":"axcj0021.jpg"},{"sampler":0,"source":13,"name":"axcj0013.jpg"},{"sampler":0,"source":14,"name":"axcj0023.jpg"},{"sampler":0,"source":15,"name":"axcj0024.png"},{"sampler":0,"source":16,"name":"axcj0028.png"}],"images":[{"uri":"./axcj0011.jpg"},{"uri":"./ycd04.jpg"},{"uri":"./axcj0035.jpg"},{"uri":"./axcj0036.jpg"},{"uri":"./axcj0019.png"},{"uri":"./axcj0005.jpg"},{"uri":"./axcj0004.jpg"},{"uri":"./axcj0034.jpg"},{"uri":"./axcj0026.jpg"},{"uri":"./axcj0027.jpg"},{"uri":"./axcj0012.jpg"},{"uri":"./axcj0006.jpg"},{"uri":"./axcj0021.jpg"},{"uri":"./axcj0013.jpg"},{"uri":"./axcj0023.jpg"},{"uri":"./axcj0024.png"},{"uri":"./axcj0028.png"}],"samplers":[{"magFilter":9729,"minFilter":9987}]}