{"asset":{"version":"2.0","generator":"babylon.js glTF exporter for 3dsmax 2019 v20200721.1"},"scene":0,"scenes":[{"nodes":[0,1,2]}],"nodes":[{"mesh":0,"translation":[-3.81469727E-06,2.57507753,0.0],"name":"404工段常压小工段-2F-1F"},{"mesh":1,"translation":[5.340576E-05,5.484031,2.60827637],"name":"404工段常压小工段-2F-2F"},{"name":"Default light"}],"meshes":[{"primitives":[{"attributes":{"POSITION":1,"NORMAL":2,"TEXCOORD_0":3},"indices":0,"material":0},{"attributes":{"POSITION":5,"NORMAL":6,"TEXCOORD_0":7},"indices":4,"material":1},{"attributes":{"POSITION":9,"NORMAL":10,"TEXCOORD_0":11},"indices":8,"material":2},{"attributes":{"POSITION":13,"NORMAL":14,"TEXCOORD_0":15},"indices":12,"material":3},{"attributes":{"POSITION":17,"NORMAL":18,"TEXCOORD_0":19},"indices":16,"material":4},{"attributes":{"POSITION":21,"NORMAL":22,"TEXCOORD_0":23},"indices":20,"material":5},{"attributes":{"POSITION":25,"NORMAL":26,"TEXCOORD_0":27},"indices":24,"material":6},{"attributes":{"POSITION":29,"NORMAL":30,"TEXCOORD_0":31},"indices":28,"material":7},{"attributes":{"POSITION":33,"NORMAL":34,"TEXCOORD_0":35},"indices":32,"material":8},{"attributes":{"POSITION":37,"NORMAL":38,"TEXCOORD_0":39},"indices":36,"material":9}],"name":"404工段常压小工段-2F-1F"},{"primitives":[{"attributes":{"POSITION":41,"NORMAL":42,"TEXCOORD_0":43},"indices":40,"material":0},{"attributes":{"POSITION":45,"NORMAL":46,"TEXCOORD_0":47},"indices":44,"material":4},{"attributes":{"POSITION":49,"NORMAL":50,"TEXCOORD_0":51},"indices":48,"material":5},{"attributes":{"POSITION":53,"NORMAL":54,"TEXCOORD_0":55},"indices":52,"material":6},{"attributes":{"POSITION":57,"NORMAL":58,"TEXCOORD_0":59},"indices":56,"material":3},{"attributes":{"POSITION":61,"NORMAL":62,"TEXCOORD_0":63},"indices":60,"material":2},{"attributes":{"POSITION":65,"NORMAL":66,"TEXCOORD_0":67},"indices":64,"material":7},{"attributes":{"POSITION":69,"NORMAL":70,"TEXCOORD_0":71},"indices":68,"material":8},{"attributes":{"POSITION":73,"NORMAL":74,"TEXCOORD_0":75},"indices":72,"material":9}],"name":"404工段常压小工段-2F-2F"}],"accessors":[{"bufferView":0,"componentType":5123,"count":19320,"type":"SCALAR","name":"accessorIndices"},{"bufferView":1,"componentType":5126,"count":19320,"max":[14.3056164,2.34171748,4.68357754],"min":[-14.9949455,-2.319368,-7.17597675],"type":"VEC3","name":"accessorPositions"},{"bufferView":1,"byteOffset":231840,"componentType":5126,"count":19320,"type":"VEC3","name":"accessorNormals"},{"bufferView":2,"componentType":5126,"count":19320,"type":"VEC2","name":"accessorUVs"},{"bufferView":0,"byteOffset":38640,"componentType":5123,"count":72,"type":"SCALAR","name":"accessorIndices"},{"bufferView":1,"byteOffset":463680,"componentType":5126,"count":72,"max":[1.94028807,-1.96176147,7.49952126],"min":[-8.347912,-2.31936717,-1.28919339],"type":"VEC3","name":"accessorPositions"},{"bufferView":1,"byteOffset":464544,"componentType":5126,"count":72,"type":"VEC3","name":"accessorNormals"},{"bufferView":2,"byteOffset":154560,"componentType":5126,"count":72,"type":"VEC2","name":"accessorUVs"},{"bufferView":0,"byteOffset":38784,"componentType":5123,"count":72,"type":"SCALAR","name":"accessorIndices"},{"bufferView":1,"byteOffset":465408,"componentType":5126,"count":72,"max":[15.438446,-2.31936717,7.536463],"min":[-15.4385605,-2.341717,-7.536473],"type":"VEC3","name":"accessorPositions"},{"bufferView":1,"byteOffset":466272,"componentType":5126,"count":72,"type":"VEC3","name":"accessorNormals"},{"bufferView":2,"byteOffset":155136,"componentType":5126,"count":72,"type":"VEC2","name":"accessorUVs"},{"bufferView":0,"byteOffset":38928,"componentType":5123,"count":72,"type":"SCALAR","name":"accessorIndices"},{"bufferView":1,"byteOffset":467136,"componentType":5126,"count":72,"max":[-0.890382767,-0.328328967,6.742153],"min":[-11.9615173,-2.31936717,4.62072372],"type":"VEC3","name":"accessorPositions"},{"bufferView":1,"byteOffset":468000,"componentType":5126,"count":72,"type":"VEC3","name":"accessorNormals"},{"bufferView":2,"byteOffset":155712,"componentType":5126,"count":72,"type":"VEC2","name":"accessorUVs"},{"bufferView":0,"byteOffset":39072,"componentType":5123,"count":756,"type":"SCALAR","name":"accessorIndices"},{"bufferView":1,"byteOffset":468864,"componentType":5126,"count":756,"max":[15.4385624,-1.96176124,7.53647232],"min":[-15.4385605,-2.31936717,-7.536501],"type":"VEC3","name":"accessorPositions"},{"bufferView":1,"byteOffset":477936,"componentType":5126,"count":756,"type":"VEC3","name":"accessorNormals"},{"bufferView":2,"byteOffset":156288,"componentType":5126,"count":756,"type":"VEC2","name":"accessorUVs"},{"bufferView":0,"byteOffset":40584,"componentType":5123,"count":576,"type":"SCALAR","name":"accessorIndices"},{"bufferView":1,"byteOffset":487008,"componentType":5126,"count":576,"max":[15.1367149,-1.96176124,7.360421],"min":[-15.4385586,-2.31936717,-2.14406276],"type":"VEC3","name":"accessorPositions"},{"bufferView":1,"byteOffset":493920,"componentType":5126,"count":576,"type":"VEC3","name":"accessorNormals"},{"bufferView":2,"byteOffset":162336,"componentType":5126,"count":576,"type":"VEC2","name":"accessorUVs"},{"bufferView":0,"byteOffset":41736,"componentType":5123,"count":936,"type":"SCALAR","name":"accessorIndices"},{"bufferView":1,"byteOffset":500832,"componentType":5126,"count":936,"max":[-9.61149,-1.71561933,6.739298],"min":[-12.8081665,-2.31936669,5.32626724],"type":"VEC3","name":"accessorPositions"},{"bufferView":1,"byteOffset":512064,"componentType":5126,"count":936,"type":"VEC3","name":"accessorNormals"},{"bufferView":2,"byteOffset":166944,"componentType":5126,"count":936,"type":"VEC2","name":"accessorUVs"},{"bufferView":0,"byteOffset":43608,"componentType":5123,"count":2028,"type":"SCALAR","name":"accessorIndices"},{"bufferView":1,"byteOffset":523296,"componentType":5126,"count":2028,"max":[12.3097572,-1.932219,6.65803528],"min":[-14.8173542,-2.31936622,-1.67418218],"type":"VEC3","name":"accessorPositions"},{"bufferView":1,"byteOffset":547632,"componentType":5126,"count":2028,"type":"VEC3","name":"accessorNormals"},{"bufferView":2,"byteOffset":174432,"componentType":5126,"count":2028,"type":"VEC2","name":"accessorUVs"},{"bufferView":0,"byteOffset":47664,"componentType":5123,"count":3744,"type":"SCALAR","name":"accessorIndices"},{"bufferView":1,"byteOffset":571968,"componentType":5126,"count":3744,"max":[12.2611313,-2.054499,6.628413],"min":[-14.768734,-2.27226734,-1.61014009],"type":"VEC3","name":"accessorPositions"},{"bufferView":1,"byteOffset":616896,"componentType":5126,"count":3744,"type":"VEC3","name":"accessorNormals"},{"bufferView":2,"byteOffset":190656,"componentType":5126,"count":3744,"type":"VEC2","name":"accessorUVs"},{"bufferView":0,"byteOffset":55152,"componentType":5123,"count":588,"type":"SCALAR","name":"accessorIndices"},{"bufferView":1,"byteOffset":661824,"componentType":5126,"count":588,"max":[-2.775854,-0.9303324,3.94677448],"min":[-7.342143,-2.31937,3.25173187],"type":"VEC3","name":"accessorPositions"},{"bufferView":1,"byteOffset":668880,"componentType":5126,"count":588,"type":"VEC3","name":"accessorNormals"},{"bufferView":2,"byteOffset":220608,"componentType":5126,"count":588,"type":"VEC2","name":"accessorUVs"},{"bufferView":0,"byteOffset":56328,"componentType":5123,"count":30360,"type":"SCALAR","name":"accessorIndices"},{"bufferView":1,"byteOffset":675936,"componentType":5126,"count":30360,"max":[14.2300491,1.90557337,3.5433383],"min":[-14.9894772,-1.88322484,-4.287867],"type":"VEC3","name":"accessorPositions"},{"bufferView":1,"byteOffset":1040256,"componentType":5126,"count":30360,"type":"VEC3","name":"accessorNormals"},{"bufferView":2,"byteOffset":225312,"componentType":5126,"count":30360,"type":"VEC2","name":"accessorUVs"},{"bufferView":0,"byteOffset":117048,"componentType":5123,"count":2412,"type":"SCALAR","name":"accessorIndices"},{"bufferView":1,"byteOffset":1404576,"componentType":5126,"count":2412,"max":[15.438509,-1.52561808,4.92824841],"min":[-15.4385023,-1.88322365,-4.928257],"type":"VEC3","name":"accessorPositions"},{"bufferView":1,"byteOffset":1433520,"componentType":5126,"count":2412,"type":"VEC3","name":"accessorNormals"},{"bufferView":2,"byteOffset":468192,"componentType":5126,"count":2412,"type":"VEC2","name":"accessorUVs"},{"bufferView":0,"byteOffset":121872,"componentType":5123,"count":720,"type":"SCALAR","name":"accessorIndices"},{"bufferView":1,"byteOffset":1462464,"componentType":5126,"count":720,"max":[15.1366577,-1.52561808,4.75219536],"min":[-15.4385042,-1.88322365,-4.752289],"type":"VEC3","name":"accessorPositions"},{"bufferView":1,"byteOffset":1471104,"componentType":5126,"count":720,"type":"VEC3","name":"accessorNormals"},{"bufferView":2,"byteOffset":487488,"componentType":5126,"count":720,"type":"VEC2","name":"accessorUVs"},{"bufferView":0,"byteOffset":123312,"componentType":5123,"count":468,"type":"SCALAR","name":"accessorIndices"},{"bufferView":1,"byteOffset":1479744,"componentType":5126,"count":468,"max":[-9.322371,-0.9231607,3.85402632],"min":[-11.5693378,-1.88322484,3.004426],"type":"VEC3","name":"accessorPositions"},{"bufferView":1,"byteOffset":1485360,"componentType":5126,"count":468,"type":"VEC3","name":"accessorNormals"},{"bufferView":2,"byteOffset":493248,"componentType":5126,"count":468,"type":"VEC2","name":"accessorUVs"},{"bufferView":0,"byteOffset":124248,"componentType":5123,"count":36,"type":"SCALAR","name":"accessorIndices"},{"bufferView":1,"byteOffset":1490976,"componentType":5126,"count":36,"max":[-0.890325069,0.107814074,4.040121],"min":[-7.463788,-1.88322365,2.01249743],"type":"VEC3","name":"accessorPositions"},{"bufferView":1,"byteOffset":1491408,"componentType":5126,"count":36,"type":"VEC3","name":"accessorNormals"},{"bufferView":2,"byteOffset":496992,"componentType":5126,"count":36,"type":"VEC2","name":"accessorUVs"},{"bufferView":0,"byteOffset":124320,"componentType":5123,"count":72,"type":"SCALAR","name":"accessorIndices"},{"bufferView":1,"byteOffset":1491840,"componentType":5126,"count":72,"max":[15.438509,-1.88322365,4.928237],"min":[-15.438508,-1.905574,-4.928268],"type":"VEC3","name":"accessorPositions"},{"bufferView":1,"byteOffset":1492704,"componentType":5126,"count":72,"type":"VEC3","name":"accessorNormals"},{"bufferView":2,"byteOffset":497280,"componentType":5126,"count":72,"type":"VEC2","name":"accessorUVs"},{"bufferView":0,"byteOffset":124464,"componentType":5123,"count":1248,"type":"SCALAR","name":"accessorIndices"},{"bufferView":1,"byteOffset":1493568,"componentType":5126,"count":1248,"max":[-10.6575747,-1.49607611,4.121236],"min":[-14.8332825,-1.88322341,-4.25730753],"type":"VEC3","name":"accessorPositions"},{"bufferView":1,"byteOffset":1508544,"componentType":5126,"count":1248,"type":"VEC3","name":"accessorNormals"},{"bufferView":2,"byteOffset":497856,"componentType":5126,"count":1248,"type":"VEC2","name":"accessorUVs"},{"bufferView":0,"byteOffset":126960,"componentType":5123,"count":2304,"type":"SCALAR","name":"accessorIndices"},{"bufferView":1,"byteOffset":1523520,"componentType":5126,"count":2304,"max":[-10.7062,-1.61835587,4.091614],"min":[-14.7846622,-1.83612442,-4.193265],"type":"VEC3","name":"accessorPositions"},{"bufferView":1,"byteOffset":1551168,"componentType":5126,"count":2304,"type":"VEC3","name":"accessorNormals"},{"bufferView":2,"byteOffset":507840,"componentType":5126,"count":2304,"type":"VEC2","name":"accessorUVs"},{"bufferView":0,"byteOffset":131568,"componentType":5123,"count":588,"type":"SCALAR","name":"accessorIndices"},{"bufferView":1,"byteOffset":1578816,"componentType":5126,"count":588,"max":[-2.775797,-0.49418968,1.338656],"min":[-7.342087,-1.88322723,0.6436143],"type":"VEC3","name":"accessorPositions"},{"bufferView":1,"byteOffset":1585872,"componentType":5126,"count":588,"type":"VEC3","name":"accessorNormals"},{"bufferView":2,"byteOffset":526272,"componentType":5126,"count":588,"type":"VEC2","name":"accessorUVs"}],"bufferViews":[{"buffer":0,"byteLength":132744,"name":"bufferViewScalar"},{"buffer":0,"byteOffset":132744,"byteLength":1592928,"byteStride":12,"name":"bufferViewFloatVec3"},{"buffer":0,"byteOffset":1725672,"byteLength":530976,"byteStride":8,"name":"bufferViewFloatVec2"}],"buffers":[{"uri":"tileset.bin","byteLength":2256648}],"materials":[{"pbrMetallicRoughness":{"baseColorTexture":{"index":0},"metallicFactor":0.0,"roughnessFactor":0.450053632},"doubleSided":true,"name":"anc0111"},{"pbrMetallicRoughness":{"baseColorTexture":{"index":1},"metallicFactor":0.0,"roughnessFactor":0.450053632},"doubleSided":true,"name":"anc0051"},{"pbrMetallicRoughness":{"baseColorTexture":{"index":2},"metallicFactor":0.0,"roughnessFactor":0.450053632},"doubleSided":true,"name":"anc0042"},{"pbrMetallicRoughness":{"baseColorTexture":{"index":3},"metallicFactor":0.0,"roughnessFactor":0.450053632},"name":"anc0053"},{"pbrMetallicRoughness":{"baseColorTexture":{"index":4},"metallicFactor":0.0,"roughnessFactor":0.450053632},"name":"anc0054"},{"pbrMetallicRoughness":{"baseColorTexture":{"index":5},"metallicFactor":0.0,"roughnessFactor":0.450053632},"doubleSided":true,"name":"anc0050"},{"pbrMetallicRoughness":{"baseColorTexture":{"index":6},"metallicFactor":0.0,"roughnessFactor":0.450053632},"name":"anc0081"},{"pbrMetallicRoughness":{"baseColorTexture":{"index":7},"metallicFactor":0.0,"roughnessFactor":0.450053632},"doubleSided":true,"name":"anc0057"},{"pbrMetallicRoughness":{"baseColorTexture":{"index":8},"metallicFactor":0.0,"roughnessFactor":0.450053632},"doubleSided":true,"name":"anc0058"},{"pbrMetallicRoughness":{"baseColorTexture":{"index":9},"metallicFactor":0.0,"roughnessFactor":0.450053632},"name":"anc0049"}],"textures":[{"sampler":0,"source":0,"name":"axcj0048.jpg"},{"sampler":0,"source":1,"name":"axcj0003.jpg"},{"sampler":0,"source":2,"name":"ycd04.jpg"},{"sampler":0,"source":3,"name":"axcj0004.jpg"},{"sampler":0,"source":4,"name":"axcj0006.jpg"},{"sampler":0,"source":5,"name":"axcj0005.jpg"},{"sampler":0,"source":6,"name":"axcj0038.jpg"},{"sampler":0,"source":7,"name":"axcj0012.jpg"},{"sampler":0,"source":8,"name":"axcj0013.jpg"},{"sampler":0,"source":9,"name":"axcj0002.jpg"}],"images":[{"uri":"./axcj0048.jpg"},{"uri":"./axcj0003.jpg"},{"uri":"./ycd04.jpg"},{"uri":"./axcj0004.jpg"},{"uri":"./axcj0006.jpg"},{"uri":"./axcj0005.jpg"},{"uri":"./axcj0038.jpg"},{"uri":"./axcj0012.jpg"},{"uri":"./axcj0013.jpg"},{"uri":"./axcj0002.jpg"}],"samplers":[{"magFilter":9729,"minFilter":9987}]}