{"asset":{"version":"2.0","generator":"babylon.js glTF exporter for 3dsmax 2019 v20200721.1"},"scene":0,"scenes":[{"nodes":[0,1,2,3,4]}],"nodes":[{"mesh":0,"translation":[-3.46760559,0.100075722,0.0909118652],"name":"200车间-4F-1F"},{"mesh":1,"translation":[2.56376648,10.6000776,-0.0533447266],"name":"200车间-4F-4F"},{"mesh":2,"translation":[2.56375122,7.10007763,-0.0539550781],"name":"200车间-4F-3F"},{"mesh":3,"translation":[0.0480804443,3.600077,0.0],"name":"200车间-4F-2F"},{"name":"Default light"}],"meshes":[{"primitives":[{"attributes":{"POSITION":1,"NORMAL":2,"TEXCOORD_0":3},"indices":0,"material":0},{"attributes":{"POSITION":5,"NORMAL":6,"TEXCOORD_0":7},"indices":4,"material":1},{"attributes":{"POSITION":9,"NORMAL":10,"TEXCOORD_0":11},"indices":8,"material":2},{"attributes":{"POSITION":13,"NORMAL":14,"TEXCOORD_0":15},"indices":12,"material":3},{"attributes":{"POSITION":17,"NORMAL":18,"TEXCOORD_0":19},"indices":16,"material":4}],"name":"200车间-4F-1F"},{"primitives":[{"attributes":{"POSITION":21,"NORMAL":22,"TEXCOORD_0":23},"indices":20,"material":3},{"attributes":{"POSITION":25,"NORMAL":26,"TEXCOORD_0":27},"indices":24,"material":1},{"attributes":{"POSITION":29,"NORMAL":30,"TEXCOORD_0":31},"indices":28,"material":2},{"attributes":{"POSITION":33,"NORMAL":34,"TEXCOORD_0":35},"indices":32,"material":0},{"attributes":{"POSITION":37,"NORMAL":38,"TEXCOORD_0":39},"indices":36,"material":5},{"attributes":{"POSITION":41,"NORMAL":42,"TEXCOORD_0":43},"indices":40,"material":4}],"name":"200车间-4F-4F"},{"primitives":[{"attributes":{"POSITION":45,"NORMAL":46,"TEXCOORD_0":47},"indices":44,"material":0},{"attributes":{"POSITION":49,"NORMAL":50,"TEXCOORD_0":51},"indices":48,"material":1},{"attributes":{"POSITION":53,"NORMAL":54,"TEXCOORD_0":55},"indices":52,"material":4},{"attributes":{"POSITION":57,"NORMAL":58,"TEXCOORD_0":59},"indices":56,"material":5},{"attributes":{"POSITION":61,"NORMAL":62,"TEXCOORD_0":63},"indices":60,"material":3},{"attributes":{"POSITION":65,"NORMAL":66,"TEXCOORD_0":67},"indices":64,"material":2}],"name":"200车间-4F-3F"},{"primitives":[{"attributes":{"POSITION":69,"NORMAL":70,"TEXCOORD_0":71},"indices":68,"material":3},{"attributes":{"POSITION":73,"NORMAL":74,"TEXCOORD_0":75},"indices":72,"material":4},{"attributes":{"POSITION":77,"NORMAL":78,"TEXCOORD_0":79},"indices":76,"material":2},{"attributes":{"POSITION":81,"NORMAL":82,"TEXCOORD_0":83},"indices":80,"material":0},{"attributes":{"POSITION":85,"NORMAL":86,"TEXCOORD_0":87},"indices":84,"material":5},{"attributes":{"POSITION":89,"NORMAL":90,"TEXCOORD_0":91},"indices":88,"material":1}],"name":"200车间-4F-2F"}],"accessors":[{"bufferView":0,"componentType":5123,"count":3204,"type":"SCALAR","name":"accessorIndices"},{"bufferView":1,"componentType":5126,"count":3204,"max":[18.5928211,0.8500001,15.9551449],"min":[-11.5545378,0.0499999523,-14.0801229],"type":"VEC3","name":"accessorPositions"},{"bufferView":1,"byteOffset":38448,"componentType":5126,"count":3204,"type":"VEC3","name":"accessorNormals"},{"bufferView":2,"componentType":5126,"count":3204,"type":"VEC2","name":"accessorUVs"},{"bufferView":0,"byteOffset":6408,"componentType":5123,"count":948,"type":"SCALAR","name":"accessorIndices"},{"bufferView":1,"byteOffset":76896,"componentType":5126,"count":948,"max":[-1.54735661,2.68029213,3.32186341],"min":[-5.302482,0.0500028133,0.5983593],"type":"VEC3","name":"accessorPositions"},{"bufferView":1,"byteOffset":88272,"componentType":5126,"count":948,"type":"VEC3","name":"accessorNormals"},{"bufferView":2,"byteOffset":25632,"componentType":5126,"count":948,"type":"VEC2","name":"accessorUVs"},{"bufferView":0,"byteOffset":8304,"componentType":5123,"count":720,"type":"SCALAR","name":"accessorIndices"},{"bufferView":1,"byteOffset":99648,"componentType":5126,"count":720,"max":[3.4733727,0.85,15.6922789],"min":[-11.4767542,0.0499999523,-13.706789],"type":"VEC3","name":"accessorPositions"},{"bufferView":1,"byteOffset":108288,"componentType":5126,"count":720,"type":"VEC3","name":"accessorNormals"},{"bufferView":2,"byteOffset":33216,"componentType":5126,"count":720,"type":"VEC2","name":"accessorUVs"},{"bufferView":0,"byteOffset":9744,"componentType":5123,"count":1338,"type":"SCALAR","name":"accessorIndices"},{"bufferView":1,"byteOffset":116928,"componentType":5126,"count":1338,"max":[18.5447426,0.8500004,13.4920673],"min":[-6.48199272,0.05000007,-14.09032],"type":"VEC3","name":"accessorPositions"},{"bufferView":1,"byteOffset":132984,"componentType":5126,"count":1338,"type":"VEC3","name":"accessorNormals"},{"bufferView":2,"byteOffset":38976,"componentType":5126,"count":1338,"type":"VEC2","name":"accessorUVs"},{"bufferView":0,"byteOffset":12420,"componentType":5123,"count":57,"type":"SCALAR","name":"accessorIndices"},{"bufferView":1,"byteOffset":149040,"componentType":5126,"count":57,"max":[18.59258,0.05000007,15.9557762],"min":[-11.6576347,0.0,-14.0903482],"type":"VEC3","name":"accessorPositions"},{"bufferView":1,"byteOffset":149724,"componentType":5126,"count":57,"type":"VEC3","name":"accessorNormals"},{"bufferView":2,"byteOffset":49680,"componentType":5126,"count":57,"type":"VEC2","name":"accessorUVs"},{"bufferView":0,"byteOffset":12536,"componentType":5123,"count":1338,"type":"SCALAR","name":"accessorIndices"},{"bufferView":1,"byteOffset":150408,"componentType":5126,"count":1338,"max":[12.5133877,0.8500002,13.6380367],"min":[-12.5133486,0.0499993563,-13.9443493],"type":"VEC3","name":"accessorPositions"},{"bufferView":1,"byteOffset":166464,"componentType":5126,"count":1338,"type":"VEC3","name":"accessorNormals"},{"bufferView":2,"byteOffset":50136,"componentType":5126,"count":1338,"type":"VEC2","name":"accessorUVs"},{"bufferView":0,"byteOffset":15212,"componentType":5123,"count":1896,"type":"SCALAR","name":"accessorIndices"},{"bufferView":1,"byteOffset":182520,"componentType":5126,"count":1896,"max":[-7.578686,2.680292,3.46787834],"min":[-12.50991,0.0500025749,-15.8387814],"type":"VEC3","name":"accessorPositions"},{"bufferView":1,"byteOffset":205272,"componentType":5126,"count":1896,"type":"VEC3","name":"accessorNormals"},{"bufferView":2,"byteOffset":60840,"componentType":5126,"count":1896,"type":"VEC2","name":"accessorUVs"},{"bufferView":0,"byteOffset":19004,"componentType":5123,"count":288,"type":"SCALAR","name":"accessorIndices"},{"bufferView":1,"byteOffset":228024,"componentType":5126,"count":288,"max":[-3.48150444,0.8499994,8.970657],"min":[-10.008831,0.0499993563,-13.5608044],"type":"VEC3","name":"accessorPositions"},{"bufferView":1,"byteOffset":231480,"componentType":5126,"count":288,"type":"VEC3","name":"accessorNormals"},{"bufferView":2,"byteOffset":76008,"componentType":5126,"count":288,"type":"VEC2","name":"accessorUVs"},{"bufferView":0,"byteOffset":19580,"componentType":5123,"count":2988,"type":"SCALAR","name":"accessorIndices"},{"bufferView":1,"byteOffset":234936,"componentType":5126,"count":2988,"max":[12.5611916,0.8500002,15.9937916],"min":[-12.5612326,0.0499992371,-15.9937592],"type":"VEC3","name":"accessorPositions"},{"bufferView":1,"byteOffset":270792,"componentType":5126,"count":2988,"type":"VEC3","name":"accessorNormals"},{"bufferView":2,"byteOffset":78312,"componentType":5126,"count":2988,"type":"VEC2","name":"accessorUVs"},{"bufferView":0,"byteOffset":25556,"componentType":5123,"count":540,"type":"SCALAR","name":"accessorIndices"},{"bufferView":1,"byteOffset":306648,"componentType":5126,"count":540,"max":[12.3136635,0.8500002,15.22758],"min":[-3.70814133,0.05000019,-11.0891838],"type":"VEC3","name":"accessorPositions"},{"bufferView":1,"byteOffset":313128,"componentType":5126,"count":540,"type":"VEC3","name":"accessorNormals"},{"bufferView":2,"byteOffset":102216,"componentType":5126,"count":540,"type":"VEC2","name":"accessorUVs"},{"bufferView":0,"byteOffset":26636,"componentType":5123,"count":1056,"type":"SCALAR","name":"accessorIndices"},{"bufferView":1,"byteOffset":319608,"componentType":5126,"count":1056,"max":[12.5612335,0.05000019,15.9937468],"min":[-12.5611887,1.899898E-07,-15.9937992],"type":"VEC3","name":"accessorPositions"},{"bufferView":1,"byteOffset":332280,"componentType":5126,"count":1056,"type":"VEC3","name":"accessorNormals"},{"bufferView":2,"byteOffset":106536,"componentType":5126,"count":1056,"type":"VEC2","name":"accessorUVs"},{"bufferView":0,"byteOffset":28748,"componentType":5123,"count":3564,"type":"SCALAR","name":"accessorIndices"},{"bufferView":1,"byteOffset":344952,"componentType":5126,"count":3564,"max":[12.5611954,0.8500002,15.9937878],"min":[-12.5612278,0.0499994755,-15.9937649],"type":"VEC3","name":"accessorPositions"},{"bufferView":1,"byteOffset":387720,"componentType":5126,"count":3564,"type":"VEC3","name":"accessorNormals"},{"bufferView":2,"byteOffset":114984,"componentType":5126,"count":3564,"type":"VEC2","name":"accessorUVs"},{"bufferView":0,"byteOffset":35876,"componentType":5123,"count":1896,"type":"SCALAR","name":"accessorIndices"},{"bufferView":1,"byteOffset":430488,"componentType":5126,"count":1896,"max":[-7.578701,2.68029165,3.46788979],"min":[-12.5099049,0.0500020981,-15.8387852],"type":"VEC3","name":"accessorPositions"},{"bufferView":1,"byteOffset":453240,"componentType":5126,"count":1896,"type":"VEC3","name":"accessorNormals"},{"bufferView":2,"byteOffset":143496,"componentType":5126,"count":1896,"type":"VEC2","name":"accessorUVs"},{"bufferView":0,"byteOffset":39668,"componentType":5123,"count":132,"type":"SCALAR","name":"accessorIndices"},{"bufferView":1,"byteOffset":475992,"componentType":5126,"count":132,"max":[12.56122,0.05000007,15.9937572],"min":[-12.561202,0.0,-15.9937849],"type":"VEC3","name":"accessorPositions"},{"bufferView":1,"byteOffset":477576,"componentType":5126,"count":132,"type":"VEC3","name":"accessorNormals"},{"bufferView":2,"byteOffset":158664,"componentType":5126,"count":132,"type":"VEC2","name":"accessorUVs"},{"bufferView":0,"byteOffset":39932,"componentType":5123,"count":42,"type":"SCALAR","name":"accessorIndices"},{"bufferView":1,"byteOffset":479160,"componentType":5126,"count":42,"max":[12.3136635,0.85,15.2282133],"min":[5.81918526,0.0499999523,-2.71941876],"type":"VEC3","name":"accessorPositions"},{"bufferView":1,"byteOffset":479664,"componentType":5126,"count":42,"type":"VEC3","name":"accessorNormals"},{"bufferView":2,"byteOffset":159720,"componentType":5126,"count":42,"type":"VEC2","name":"accessorUVs"},{"bufferView":0,"byteOffset":40016,"componentType":5123,"count":1338,"type":"SCALAR","name":"accessorIndices"},{"bufferView":1,"byteOffset":480168,"componentType":5126,"count":1338,"max":[12.51339,0.8500002,13.6380463],"min":[-12.5133476,0.0499995947,-13.9443445],"type":"VEC3","name":"accessorPositions"},{"bufferView":1,"byteOffset":496224,"componentType":5126,"count":1338,"type":"VEC3","name":"accessorNormals"},{"bufferView":2,"byteOffset":160056,"componentType":5126,"count":1338,"type":"VEC2","name":"accessorUVs"},{"bufferView":0,"byteOffset":42692,"componentType":5123,"count":288,"type":"SCALAR","name":"accessorIndices"},{"bufferView":1,"byteOffset":512280,"componentType":5126,"count":288,"max":[-3.481505,0.8499997,6.10747957],"min":[-11.3828163,0.0499995947,-13.5608082],"type":"VEC3","name":"accessorPositions"},{"bufferView":1,"byteOffset":515736,"componentType":5126,"count":288,"type":"VEC3","name":"accessorNormals"},{"bufferView":2,"byteOffset":170760,"componentType":5126,"count":288,"type":"VEC2","name":"accessorUVs"},{"bufferView":0,"byteOffset":43268,"componentType":5123,"count":1374,"type":"SCALAR","name":"accessorIndices"},{"bufferView":1,"byteOffset":519192,"componentType":5126,"count":1374,"max":[15.0290661,0.8500002,13.5840359],"min":[-9.99767,0.0499999523,-13.99835],"type":"VEC3","name":"accessorPositions"},{"bufferView":1,"byteOffset":535680,"componentType":5126,"count":1374,"type":"VEC3","name":"accessorNormals"},{"bufferView":2,"byteOffset":173064,"componentType":5126,"count":1374,"type":"VEC2","name":"accessorUVs"},{"bufferView":0,"byteOffset":46016,"componentType":5123,"count":1074,"type":"SCALAR","name":"accessorIndices"},{"bufferView":1,"byteOffset":552168,"componentType":5126,"count":1074,"max":[15.0769043,0.0499999523,16.0477772],"min":[-15.0771132,-4.84287739E-08,-16.04777],"type":"VEC3","name":"accessorPositions"},{"bufferView":1,"byteOffset":565056,"componentType":5126,"count":1074,"type":"VEC3","name":"accessorNormals"},{"bufferView":2,"byteOffset":184056,"componentType":5126,"count":1074,"type":"VEC2","name":"accessorUVs"},{"bufferView":0,"byteOffset":48164,"componentType":5123,"count":432,"type":"SCALAR","name":"accessorIndices"},{"bufferView":1,"byteOffset":577944,"componentType":5126,"count":432,"max":[-0.965833664,0.849999964,11.0725594],"min":[-11.1570835,0.0499999523,-13.6147881],"type":"VEC3","name":"accessorPositions"},{"bufferView":1,"byteOffset":583128,"componentType":5126,"count":432,"type":"VEC3","name":"accessorNormals"},{"bufferView":2,"byteOffset":192648,"componentType":5126,"count":432,"type":"VEC2","name":"accessorUVs"},{"bufferView":0,"byteOffset":49028,"componentType":5123,"count":3420,"type":"SCALAR","name":"accessorIndices"},{"bufferView":1,"byteOffset":588312,"componentType":5126,"count":3420,"max":[15.0771561,0.849999964,16.0471458],"min":[-15.077158,0.0499999523,-16.04773],"type":"VEC3","name":"accessorPositions"},{"bufferView":1,"byteOffset":629352,"componentType":5126,"count":3420,"type":"VEC3","name":"accessorNormals"},{"bufferView":2,"byteOffset":196104,"componentType":5126,"count":3420,"type":"VEC2","name":"accessorUVs"},{"bufferView":0,"byteOffset":55868,"componentType":5123,"count":516,"type":"SCALAR","name":"accessorIndices"},{"bufferView":1,"byteOffset":670392,"componentType":5126,"count":516,"max":[14.8293324,0.849999964,15.1742287],"min":[-1.19247341,0.0499999523,-11.1425362],"type":"VEC3","name":"accessorPositions"},{"bufferView":1,"byteOffset":676584,"componentType":5126,"count":516,"type":"VEC3","name":"accessorNormals"},{"bufferView":2,"byteOffset":223464,"componentType":5126,"count":516,"type":"VEC2","name":"accessorUVs"},{"bufferView":0,"byteOffset":56900,"componentType":5123,"count":1896,"type":"SCALAR","name":"accessorIndices"},{"bufferView":1,"byteOffset":682776,"componentType":5126,"count":1896,"max":[-5.06299448,2.68029213,3.41387749],"min":[-9.994231,0.0500028133,-15.8927822],"type":"VEC3","name":"accessorPositions"},{"bufferView":1,"byteOffset":705528,"componentType":5126,"count":1896,"type":"VEC3","name":"accessorNormals"},{"bufferView":2,"byteOffset":227592,"componentType":5126,"count":1896,"type":"VEC2","name":"accessorUVs"}],"bufferViews":[{"buffer":0,"byteLength":60692,"name":"bufferViewScalar"},{"buffer":0,"byteOffset":60692,"byteLength":728280,"byteStride":12,"name":"bufferViewFloatVec3"},{"buffer":0,"byteOffset":788972,"byteLength":242760,"byteStride":8,"name":"bufferViewFloatVec2"}],"buffers":[{"uri":"tileset.bin","byteLength":1031732}],"materials":[{"pbrMetallicRoughness":{"baseColorTexture":{"index":0},"metallicFactor":0.0,"roughnessFactor":0.450053632},"name":"2D墙"},{"pbrMetallicRoughness":{"baseColorTexture":{"index":1},"metallicFactor":0.0,"roughnessFactor":0.450053632},"name":"台阶qqq"},{"pbrMetallicRoughness":{"baseColorTexture":{"index":2},"metallicFactor":0.0,"roughnessFactor":0.450053632},"doubleSided":true,"name":"车间墙"},{"pbrMetallicRoughness":{"baseColorTexture":{"index":3},"metallicFactor":0.0,"roughnessFactor":0.450053632},"doubleSided":true,"name":"金属aa"},{"pbrMetallicRoughness":{"baseColorTexture":{"index":4},"metallicFactor":0.0,"roughnessFactor":0.450053632},"doubleSided":true,"name":"2D楼板"},{"pbrMetallicRoughness":{"baseColorTexture":{"index":5},"metallicFactor":0.0,"roughnessFactor":0.450053632},"doubleSided":true,"name":"hma44"}],"textures":[{"sampler":0,"source":0,"name":"axcj0006.jpg"},{"sampler":0,"source":1,"name":"axcj0002.jpg"},{"sampler":0,"source":2,"name":"axcj0003.jpg"},{"sampler":0,"source":3,"name":"axcj0005.jpg"},{"sampler":0,"source":4,"name":"ycd04.jpg"},{"sampler":0,"source":5,"name":"axcj0019.png"}],"images":[{"uri":"./axcj0006.jpg"},{"uri":"./axcj0002.jpg"},{"uri":"./axcj0003.jpg"},{"uri":"./axcj0005.jpg"},{"uri":"./ycd04.jpg"},{"uri":"./axcj0019.png"}],"samplers":[{"magFilter":9729,"minFilter":9987}]}