{"asset":{"version":"2.0","generator":"babylon.js glTF exporter for 3dsmax 2019 v20200721.1"},"scene":0,"scenes":[{"nodes":[0,1]}],"nodes":[{"mesh":0,"translation":[0.0,2.982177,0.0],"rotation":[0.0,0.005270272,0.0,0.9999861],"scale":[0.2106885,0.33261,0.2106885],"name":"404工段精馏小工段-1F-1F"},{"name":"Default light"}],"meshes":[{"primitives":[{"attributes":{"POSITION":1,"NORMAL":2,"TEXCOORD_0":3},"indices":0,"material":0},{"attributes":{"POSITION":5,"NORMAL":6,"TEXCOORD_0":7},"indices":4,"material":1},{"attributes":{"POSITION":9,"NORMAL":10,"TEXCOORD_0":11},"indices":8,"material":2},{"attributes":{"POSITION":13,"NORMAL":14,"TEXCOORD_0":15},"indices":12,"material":3},{"attributes":{"POSITION":17,"NORMAL":18,"TEXCOORD_0":19},"indices":16,"material":4},{"attributes":{"POSITION":21,"NORMAL":22,"TEXCOORD_0":23},"indices":20,"material":5},{"attributes":{"POSITION":25,"NORMAL":26,"TEXCOORD_0":27},"indices":24,"material":6},{"attributes":{"POSITION":29,"NORMAL":30,"TEXCOORD_0":31},"indices":28,"material":7}],"name":"404工段精馏小工段-1F-1F"}],"accessors":[{"bufferView":0,"componentType":5123,"count":20700,"type":"SCALAR","name":"accessorIndices"},{"bufferView":1,"componentType":5126,"count":20700,"max":[68.0080261,8.42461,82.26567],"min":[-29.5140572,-8.268469,20.4761238],"type":"VEC3","name":"accessorPositions"},{"bufferView":1,"byteOffset":248400,"componentType":5126,"count":20700,"type":"VEC3","name":"accessorNormals"},{"bufferView":2,"componentType":5126,"count":20700,"type":"VEC2","name":"accessorUVs"},{"bufferView":0,"byteOffset":41400,"componentType":5123,"count":36,"type":"SCALAR","name":"accessorIndices"},{"bufferView":1,"byteOffset":496800,"componentType":5126,"count":36,"max":[48.6716843,-8.268468,83.3241],"min":[-15.3065119,-8.424611,60.0592957],"type":"VEC3","name":"accessorPositions"},{"bufferView":1,"byteOffset":497232,"componentType":5126,"count":36,"type":"VEC3","name":"accessorNormals"},{"bufferView":2,"byteOffset":165600,"componentType":5126,"count":36,"type":"VEC2","name":"accessorUVs"},{"bufferView":0,"byteOffset":41472,"componentType":5123,"count":3936,"type":"SCALAR","name":"accessorIndices"},{"bufferView":1,"byteOffset":497664,"componentType":5126,"count":3936,"max":[55.4610367,4.22303963,49.3329849],"min":[-55.47588,-8.268468,-74.16582],"type":"VEC3","name":"accessorPositions"},{"bufferView":1,"byteOffset":544896,"componentType":5126,"count":3936,"type":"VEC3","name":"accessorNormals"},{"bufferView":2,"byteOffset":165888,"componentType":5126,"count":3936,"type":"VEC2","name":"accessorUVs"},{"bufferView":0,"byteOffset":49344,"componentType":5123,"count":42,"type":"SCALAR","name":"accessorIndices"},{"bufferView":1,"byteOffset":592128,"componentType":5126,"count":42,"max":[32.4740753,-0.0380105972,48.1503563],"min":[3.39308071,-4.007416,16.1612587],"type":"VEC3","name":"accessorPositions"},{"bufferView":1,"byteOffset":592632,"componentType":5126,"count":42,"type":"VEC3","name":"accessorNormals"},{"bufferView":2,"byteOffset":197376,"componentType":5126,"count":42,"type":"VEC2","name":"accessorUVs"},{"bufferView":0,"byteOffset":49428,"componentType":5123,"count":6,"type":"SCALAR","name":"accessorIndices"},{"bufferView":1,"byteOffset":593136,"componentType":5126,"count":6,"max":[13.9130392,-0.0380105972,48.1503563],"min":[7.413621,-8.268466,48.1503563],"type":"VEC3","name":"accessorPositions"},{"bufferView":1,"byteOffset":593208,"componentType":5126,"count":6,"type":"VEC3","name":"accessorNormals"},{"bufferView":2,"byteOffset":197712,"componentType":5126,"count":6,"type":"VEC2","name":"accessorUVs"},{"bufferView":0,"byteOffset":49440,"componentType":5123,"count":18,"type":"SCALAR","name":"accessorIndices"},{"bufferView":1,"byteOffset":593280,"componentType":5126,"count":18,"max":[32.4740753,4.22303963,48.1503563],"min":[3.39308071,4.22303963,16.1612587],"type":"VEC3","name":"accessorPositions"},{"bufferView":1,"byteOffset":593496,"componentType":5126,"count":18,"type":"VEC3","name":"accessorNormals"},{"bufferView":2,"byteOffset":197760,"componentType":5126,"count":18,"type":"VEC2","name":"accessorUVs"},{"bufferView":0,"byteOffset":49476,"componentType":5123,"count":36,"type":"SCALAR","name":"accessorIndices"},{"bufferView":1,"byteOffset":593712,"componentType":5126,"count":36,"max":[74.7379761,-8.268468,9.734966],"min":[-74.73799,-8.424611,-83.324234],"type":"VEC3","name":"accessorPositions"},{"bufferView":1,"byteOffset":594144,"componentType":5126,"count":36,"type":"VEC3","name":"accessorNormals"},{"bufferView":2,"byteOffset":197904,"componentType":5126,"count":36,"type":"VEC2","name":"accessorUVs"},{"bufferView":0,"byteOffset":49548,"componentType":5123,"count":96,"type":"SCALAR","name":"accessorIndices"},{"bufferView":1,"byteOffset":594576,"componentType":5126,"count":96,"max":[74.7379761,-5.7701664,9.734966],"min":[-74.73799,-8.268468,-83.324234],"type":"VEC3","name":"accessorPositions"},{"bufferView":1,"byteOffset":595728,"componentType":5126,"count":96,"type":"VEC3","name":"accessorNormals"},{"bufferView":2,"byteOffset":198192,"componentType":5126,"count":96,"type":"VEC2","name":"accessorUVs"}],"bufferViews":[{"buffer":0,"byteLength":49740,"name":"bufferViewScalar"},{"buffer":0,"byteOffset":49740,"byteLength":596880,"byteStride":12,"name":"bufferViewFloatVec3"},{"buffer":0,"byteOffset":646620,"byteLength":198960,"byteStride":8,"name":"bufferViewFloatVec2"}],"buffers":[{"uri":"tileset.bin","byteLength":845580}],"materials":[{"pbrMetallicRoughness":{"baseColorTexture":{"index":0},"metallicFactor":0.0,"roughnessFactor":0.450053632},"name":"anc0055"},{"pbrMetallicRoughness":{"baseColorTexture":{"index":1},"metallicFactor":0.0,"roughnessFactor":0.450053632},"doubleSided":true,"name":"anc0042"},{"pbrMetallicRoughness":{"baseColorTexture":{"index":2},"metallicFactor":0.0,"roughnessFactor":0.450053632},"name":"anc0053"},{"pbrMetallicRoughness":{"baseColorTexture":{"index":3},"metallicFactor":0.0,"roughnessFactor":0.450053632},"name":"anc0117"},{"pbrMetallicRoughness":{"baseColorTexture":{"index":4},"metallicFactor":0.0,"roughnessFactor":0.450053632},"name":"anc0110"},{"pbrMetallicRoughness":{"baseColorTexture":{"index":5},"metallicFactor":0.0,"roughnessFactor":0.450053632},"name":"anc0118"},{"pbrMetallicRoughness":{"baseColorTexture":{"index":6},"metallicFactor":0.0,"roughnessFactor":0.450053632},"name":"anc0119"},{"pbrMetallicRoughness":{"baseColorTexture":{"index":7},"metallicFactor":0.0,"roughnessFactor":0.450053632},"name":"anc0054"}],"textures":[{"sampler":0,"source":0,"name":"axcj0011.jpg"},{"sampler":0,"source":1,"name":"ycd04.jpg"},{"sampler":0,"source":2,"name":"axcj0004.jpg"},{"sampler":0,"source":3,"name":"axcj0046.jpg"},{"sampler":0,"source":4,"name":"axcj0047.jpg"},{"sampler":0,"source":5,"name":"axcj0010.jpg"},{"sampler":0,"source":6,"name":"axcj0045.jpg"},{"sampler":0,"source":7,"name":"axcj0006.jpg"}],"images":[{"uri":"./axcj0011.jpg"},{"uri":"./ycd04.jpg"},{"uri":"./axcj0004.jpg"},{"uri":"./axcj0046.jpg"},{"uri":"./axcj0047.jpg"},{"uri":"./axcj0010.jpg"},{"uri":"./axcj0045.jpg"},{"uri":"./axcj0006.jpg"}],"samplers":[{"magFilter":9729,"minFilter":9987}]}